<mxfile host="drawio-plugin" modified="2022-12-11T22:12:32.023Z" agent="5.0 (Windows NT 6.2; Win64; x64) AppleWebKit/537.36 (KHTML, like Gecko) Chrome/87.0.4280.141 Safari/537.36" etag="gT5WzBasB8g3_9O9i5VV" version="13.7.9" type="embed"><diagram id="fqDff2OOT4ordfgiPYyi" name="Page-1"><mxGraphModel dx="837" dy="651" grid="0" gridSize="9" guides="1" tooltips="1" connect="1" arrows="1" fold="1" page="1" pageScale="1" pageWidth="850" pageHeight="300" math="0" shadow="0"><root><mxCell id="0"/><mxCell id="1" parent="0"/><mxCell id="96" value="" style="shape=image;verticalLabelPosition=bottom;labelBackgroundColor=#ffffff;verticalAlign=top;aspect=fixed;imageAspect=0;image=data:image/png,iVBORw0KGgoAAAANSUhEUgAAAEAAAAAoCAYAAABOzvzpAAAAAXNSR0IArs4c6QAAAq9JREFUaEPtmDFIHEEUhsc+ComNV16TtUnjapMQhYAQi3QJqYQcgkGEkCY2aWyCoI0ERBIQA0JAtEuhcBBQwUYvjY1nc+XZmELtDf/CfzzHud1Z4sxye/uavdud3dn3vX/eezs9qsutp8v9VwWAQgEeCYRDz29spqv9OfCmTG8TwfmR8qvI//7BciyH3Z2vyhcELwB05+FgO3s58SG65AuCdwBHjV/quLbfFsBwOKoAIfcA4CgMMPTfBYA8KwAJEPI2LQPKP9c5QAKYeb2kVrc/KR5zA0DWe5SzNCWQ2ZFJUH+WTR+RZsy9VwG8sF7K/heAy9LoDICp1rMRatcMXZw2oiYJRxhKJs1VZXAGII0Mbce66A3uHQCcse35bR3nOBftsRMA0rE4GGtPH99hMHV4duucC6flBF4AfH87pqY391q1H+UOzvc96TWK4M23muI9uQIgvZUAHgQD0aXr+nl0BIDq4js1PvfD+VehdwUg+uz/TSqg8wDR8QC4/iFnGJYBjRLX1wAiT+toAHCeSQ6JjRDoXDmM3xSB8zB2kvydtnIkjXeyBOD81vuwNfflyZXSs3vSiwGevOfzeKC+VOu3gJieIbtGm+bJG4Akh/XrqBCyGlRKfWq9eRkNq3ycNz5udvJFdH5l47fCbxzXl+djE6kzAHrG539Z+uCgNKkaVgPmCioAUS0Fj+4AMDmPQZkB0JOZKWTVn89apx8GC62dIdNYqQDKnOMIpFn/G8HBEWbTOjtRACaXHaBpN5gfPNJZfbdYflARgEyKScvKpolyBoAvl2ZHmPeYPqc7qgrIyFAJVAE+cdtFRsLCM+LGJkXf9roXBchGKE6WAGA71tbBpHFeAPAlktak6+0vEwznAJIikPX1AkDWEch6/kIBWUcg6/kLBWQdgazn73oF/ANLN6Q4GM1JwQAAAABJRU5ErkJggg==;" parent="1" vertex="1"><mxGeometry width="64" height="40" as="geometry"/></mxCell><mxCell id="97" value="" style="shape=image;verticalLabelPosition=bottom;labelBackgroundColor=#ffffff;verticalAlign=top;aspect=fixed;imageAspect=0;image=data:image/png,iVBORw0KGgoAAAANSUhEUgAAAEAAAAAoCAYAAABOzvzpAAAAAXNSR0IArs4c6QAAApZJREFUaEPtmEEoREEYx2fvKFw47sW6uFguhFKKgxs5KZsiKblwcdmLFBcpiRKllLg5UFsK5cI6W5c9cuEgd/pPfdvXePvMYL6e3fddZnv75s38f/OfmW8moao8ElWuX4kCSLf3fNgAz99fi/VLrCGI70wOa/2NrclQDudnG0oKgggAUzwElovBoTn9lxQEcQC3xVN1l78qC6Aj3asAoeIBQCgCMMzfMYBKdgAWQNg7aBqQ/St6DeAAZkbW1NbJgqKyagDY5AL/dhHkyQ7t5S45AMHhAIK+aQPR5p0/3wbRWb6X805QIlQuGXp5KOokCSUCWybCZ27gDQBGkDpuMxJh79C3fEwLbwC4lX8DgEP8FwAg1vbQs9vV8oXN5M1jWV4+zgd/7gCz94CxM9anpo4uS3s/tjuIr2urDRQ7up1XVMeHaN6oKADeMAdQk2rSf70XnnUJALnVCTWwuO/9VCgKgPJ+KoNcQOIBoqIAQBCmAQVZ3JwDGHkKAED4nAZeHYD5fzyd1paGYB7JdPilCIlfGkip5VxBQwhbXHmu4HKa9AaAxJNoQHAJTA/sCJnmOrX39KarZuazgZ+YHe/XzzcPLhR+o9xbz1o5RxQALWxB25+pDDsEoJEDMKrNqYYvAILE46VIAOCLHF/Z6bnpCkwX0zHcAWZmSUCeCq8aDkqES8LkzQHoCKYBjTbsTA4gkbnD7pLg+tRK6WYID83zxHdrALeGy6LpHYDpWRJGBx7+f9Btsctouqwx9K53AOYJMOxGmAtAPbo8cRlRVwjeAdD2RzmAjRhKnyEG9WzquAoXcwA15CrC5yUIh+XVAT8dFcl6MQBJ2lFsK3ZAFEdFsk+xAyRpR7Gt2AFRHBXJPsUOkKQdxbY+AWAojzj+I5jtAAAAAElFTkSuQmCC;" parent="1" vertex="1"><mxGeometry y="40" width="64" height="40" as="geometry"/></mxCell><mxCell id="98" value="" style="shape=image;verticalLabelPosition=bottom;labelBackgroundColor=#ffffff;verticalAlign=top;aspect=fixed;imageAspect=0;image=data:image/png,iVBORw0KGgoAAAANSUhEUgAAAEAAAAAoCAYAAABOzvzpAAAAAXNSR0IArs4c6QAAAuVJREFUaEPtmD9oFEEUxie9CtHG2F2Ts4iNp40SBSGQFHYRK0ERlCBIGm0uRYqAkDQiBDEQIggBSboUCoFAFGz0bLRIbK7z0mgR7RO+gS+828ztzl7e7N3e7TT3Z9/8+X7zzZuZHTB9Xgb6XL8pABQO6HMCmS2ByuXRgzSsa98/ZzK2TDqB+Kul21b/1/pGIofxiafm44dXhhAkPG0wwQFExX+rfUoEcKVyw0gI1erawVD5rK238nL2CExiQx4BHQEAgSwA4votAQAi4hbfbZnG7t8md3hojA3JBQA64Mm9W2ZmZj2/AM5dLNnBxy0D2h/TxjwAAHNzk9YB2ssgUwdIAFOTC1bM6/VnRn53AeASQHzXO4AZW2Zw7gAAkKbAASwPpmcNlgBcoJkIVR0A8UhetK8USwj4Lw7En526fY5PxgIEALB0PQAMmCDSzLgrli4ggK7eBaQDXC44CYzcAPAVuXxtuGXowy+/jj3LDYDokXfp7k3z6P320daHLA/xZy6djmV1503NsC4Do0dkX9hxcapJEB1FLz1REYiRAE6VzzeN7//unv3tAiADte4E6gDkIAFDOgCzz6NvnAsgfnP+vqnX6tY91bGy+f2zYS6MDNlPlJXGvsqdIBMAGDCEsLhcIcFBPAoBtLKwhguCAeBSgFiUUiXdIQjiJTi0gzbGnr9VmXlCDQIA4tceV8z+j38GGZ0Q0iYtuoY7BtrSmHU5DnUAFM9OCCGteCZLuSVqi0cfqgAgHusXNpUCXHu+a69nHcJiTAjhQZYAAbBxgnDN/ubq9WN/D5ZfNL0ckfeKUBBUHQBF0XOA6ybIi44LjOuiJN8PtrOU4uqoA5CdyfeBFCavuEliAI/vEHLjABcAKd5HCA9Q3AZ96iTBbPU8uAPQsbwf+IgJ+Ro8CiI4AJ4BsKf7iG93JtutFxwAB9aN4tXPAe3OQifrBXVAJ4X59l0A8CXVq3GFA3p1Zn11FQ7wJdWrcYf+l7k4zzRYWwAAAABJRU5ErkJggg==;" parent="1" vertex="1"><mxGeometry y="80" width="64" height="40" as="geometry"/></mxCell><mxCell id="99" value="" style="shape=image;verticalLabelPosition=bottom;labelBackgroundColor=#ffffff;verticalAlign=top;aspect=fixed;imageAspect=0;image=data:image/png,iVBORw0KGgoAAAANSUhEUgAAAEAAAAAoCAYAAABOzvzpAAAAAXNSR0IArs4c6QAAAuVJREFUaEPtmE9IVEEcx8d7CdYlj3tpu3Rx7WKkEAh26FZ4EhJBiUC81MWLFwnsEkFEQRgEQeTNg8JCoIEXXS9d2i4e7ZIH9Z58h77Lr3He23nu+01v9c1l9s/MvPl+5vf7zrzpMRe89Fxw/aYEEDMCagN3/oQ8r7H7LdrCRHsQxN+q3DdXb1TaMlhfe2ViQYgCgOK391bbikeDsXuzJhaEqACovkhREB0AxGN1kwpWH+XcRgDSYKexmQhgsDZ8vlOAACAUBTDcz13vAXK7g5vTBCE4KwB3rCAXzdAodw/AhJnHv3/sWcEo2AJR6AG+NGD40wPYj6ap4QsqALgAFA0IPgCPH7wwb1aeGtYuANmfY+Z9PlABIJ3chRGyBcoI4LlAa2dQA+Db6riiTAU3VZEyAISafsE2WsaoBiCDDwU37QoPgJrQl55g5X8b5p3/GDb3CHBFSRh0fpjd+6Hrifqntn62/tMQLR+sBkAKfzc+YqY/b/wjGAB6b162v12qXrP1cfOXrR++bRj24TkCv2vAyB0AhX+ZqZ0Sw1MfawmBdCC+vvTIfh199qEFbX60ahbrTQshLcXkDhRinLkCwMQweUzcBQAlMgp8UYE2FE8AbDfZ32uW9w8tkMm5BW/6PJm4a39//fGrwWfUyy8XUiNHHcDh9yODnIYQWSq19IsRrj4BMAKwqv3VK6cA+MSj0X8BwNVjFBBCout5/kB6SDOUEcAwZzcC2W8eWDioUUK2zVwjAA918zPN7dOAwCDhBywE0M4D5Jghppk7AFcUgRAEnZ9uL9szYqQhdt0u4AOAI7DvPrD+6XareV/1eeteIOsqZkktt22UCJBvgpwAz/tyQu6LUkgOdyIefdUB0BdcCEW5F4wCgBC4FeI84DMoeXPEi5MQI+skCqIBcHeIJGGA0A5UJ4Kje8BZJqt9DyjnFDUCzgJDu08JQJtw0ccvI6DoK6Q9vzICtAkXffwyAoq+QtrzOwGJ+LA4RSfYfgAAAABJRU5ErkJggg==;" parent="1" vertex="1"><mxGeometry y="120" width="64" height="40" as="geometry"/></mxCell><mxCell id="100" value="" style="shape=image;verticalLabelPosition=bottom;labelBackgroundColor=#ffffff;verticalAlign=top;aspect=fixed;imageAspect=0;image=data:image/png,iVBORw0KGgoAAAANSUhEUgAAAEAAAAAoCAYAAABOzvzpAAAAAXNSR0IArs4c6QAAAopJREFUaEPtmD9Iw0AUxq+7FtTFjl2Mi4vRRVFBKOjgpjgJFkERQVx0cekigi4iiCiIgiCIbg4KBUEFF62Li3XpWBcdqrvyHTy5xEsvwl1o2rslTfKSu+9371+aYA0+Eg2un1kA1gManIANgQZ3AJsEbQhEFQJu98D3f+YqPN1FsjmRTALxvekxrr+tMx2Kw9XlNosCgnEAfvEQphojo4vcJAoIkQJ4KF2wx8KtSj/rcQcZINQtAAikASCycwugHj0ACRBuXS0MyP1jmQPEUkcZXJYEAWB+fJNHwe75sud3EADZu5XJJISB1iSIRYoZXJyfyqCqFL6/lHipxBEDiRPDVGUwAgBuTgsOsQmhTOiduiuDEQCkKEzND6NehFnTACAmqOWlxIcYP+jrUOqeuX+V2ujuDrV6gH/FgLE/OcRmT288twAg2dXMrzU57Z57X8U3fj6xV2D0rG7R4oSRAaCGh44iBD84iM9vTPPLmZUjo98ExgBQKGAXMUQvkHmFCIHExxYAxFOcI5YJAolMu+G+CLH7GLEKAYg/m3N/N7Ty/MmCEpoqEwIingUA8ijdMLSHgAyATGgQFLFCIFEiH9BYzThsLV/0AJG9W2yaVB9VRgCodhb38yf9HrMWZ52fi1+GZEA5I5tKssNyhV/OLuWk0yxMDfPrO8fXDL9xPNzKBYaREQD+JOb/N4jaXJkC/z9GaHwIAHkAdjXltP55XCYeRpECwISyZoggUG+v8hKZvegB/labgJSLHxwOjhiqzlG7B4jCqBGiayiF1ZJYkD0BJQBiUlSBVCVN4wDEBaoW4/cc0T42VUC1I7V236gH1JpY2XosgDjsksk1Wg8wSTcO77YeEIddMrnGHzKwdjjT1rg2AAAAAElFTkSuQmCC;" parent="1" vertex="1"><mxGeometry y="160" width="64" height="40" as="geometry"/></mxCell><mxCell id="101" value="" style="shape=image;verticalLabelPosition=bottom;labelBackgroundColor=#ffffff;verticalAlign=top;aspect=fixed;imageAspect=0;image=data:image/png,iVBORw0KGgoAAAANSUhEUgAAAEAAAAAoCAYAAABOzvzpAAAAAXNSR0IArs4c6QAAASNJREFUaEPtmOEOgyAQg+X9H5rFJRjmHGnBdhhuv0+PfterzrQt/kuL698CgNMBOeeM9Esp2QZja4SKL4BcECwAWPFOCAEA2cnRmnAAGH5n0I4ciBUYtTdy/ZIr0Cu6BVSxEpIVUIhXPRoDALLDbM3yDtiBKSA8JgNqx4yCUIiuzyfJgABQEQgHdL4Gqx57X6/bbMIz9aPT33vtGVDuo8gDWQbcIf4Kdg0EHUYL3OMAoKI/kr7xiS0A9BBFr1GtAdq/ZEjzDxZzs57auyEwGYCEpmwFCqw7ASCC2CH9DcAvMVfAFMKP9wyWGFvPCjrXK8W/M4IVxNazgup6tXg7AIcgdkByB7AHctcHADfx2fqFA2abiPs84QA38dn6hQNmm4j7PC/354gpGFgP9AAAAABJRU5ErkJggg==;" parent="1" vertex="1"><mxGeometry y="200" width="64" height="40" as="geometry"/></mxCell><mxCell id="102" value="" style="shape=image;verticalLabelPosition=bottom;labelBackgroundColor=#ffffff;verticalAlign=top;aspect=fixed;imageAspect=0;image=data:image/png,iVBORw0KGgoAAAANSUhEUgAAAEAAAAAoCAYAAABOzvzpAAAAAXNSR0IArs4c6QAAAplJREFUaEPtmD9IW0Ecx89dhepixiyNi4vPLooWCoE6uCmdhIaCpQji0i5dHJRCu4gg0oIoCIViNwcLgUItdGnj4mJcHHWxQ+xe+R58w4/LS97lz91J8m65mLvnu+/n9/fSp3p89PW4fpUCSD2gxwl4DYFofPq/De/S6U9v5/L2Ioh/lJ3T+odHsw05fDveUr4geAFA8b8vj9TT2RUtHiLrDezxBSEIAIj7UzqpC2AimtFrPrwgKAAKBYy4zykAD8kwiAcwB8SFATyh63OABPBq/oPa+fpace4KAHH13rYEMjOaVcJVPuh4CNQrea0CkGXTBQTnAKQlCYFWjmuIbs4vdaOEGX0Dhsuc4ByATetrs8dVY9RxABBj2/PbCOceF+6P/+0EgBRmA2N38mENixe/Lrx0g14AfHr2uCpw6cuPahuMkgfxg2MDsc6w8LHkvB0OAkCqlQD6cyN66V/5Ws9dC4C9P+c4L4B4Hxcipx7A+JchAFEIAw6syb/5ffH9c5V/s+8cgjMAEH/4MlKVs1uFhGZCyEaNfxSh+Lf5nNoolnUukAlVNkjt9AlOAFA8rUkIzZQ9hAXAFTKDau+qoh8trK7peXnxiZ63D77rz5j3NtdaSpgdB0ArwfoSQDPisReVAXnABGCKJ4h7BUDGr1njZcljoiMcCY1VgCEAN19fn6+xPJ+9dwB4MMZynAcUP09Vv36Qe1f9VUjuNT3gqvxXZXJDCjNHO21yx0MAhzK7v7ibIC475jAvRxBGAGYSlM+20yY7ASAPRxiEwBtevZyAfQTBm2Q7ApNyjxcALIGo943EAJbt3iRhtuteAPAwSZaUoZO011Zg0j7nAJIOEHo9BRDaAqHfn3pAaAuEfn/qAaEtEPr9Pe8Bd3SBkziaN3TNAAAAAElFTkSuQmCC;" parent="1" vertex="1"><mxGeometry y="240" width="64" height="40" as="geometry"/></mxCell><mxCell id="103" value="" style="shape=image;verticalLabelPosition=bottom;labelBackgroundColor=#ffffff;verticalAlign=top;aspect=fixed;imageAspect=0;image=data:image/png,iVBORw0KGgoAAAANSUhEUgAAAEAAAAAoCAYAAABOzvzpAAAAAXNSR0IArs4c6QAAAuhJREFUaEPtmTFoFEEUhl96FdTG2F3jWWjjmUYxQiCghV3ESlAERQSxic2lSBEIxCYEQlAQBUGQpLNQCAgq2OjZmCKxuc5LY4poH/kH/uU5mb2bJTNz2c1Ns+Hy9nb+7/3vzczekBzwMXTA9cu+B9A4d2mHSWp9/xx8vsG/sJujtJhucVpos7m8M1w/ZsJfzE9LaAjJAED8SO2aEfK1/TZX/5WrD+X9u4VMKO771voki68+SGdj67//hSjfJABs8RCUN843RkVDoAMe3ByTqamV6gCAUAzAsP+2AczMTBgHxCiDvjnAFwBLAOIr4YDjp2vGxq4yoP0hln0AAG4/mhaUAFwQuhEmd4AGcH/iiSytTAqv3QCwZ5QCAJc7Llm6CQKAz7AdgHtKsQpALJoYbazFchnEZy4Qv9fb5nNc9XKJEigdAGSQIHwynheD7yklAAqCgL2O0gHwFfz8wqldoXe+/HTebu8QfZ/RKy74KuDa8j67cdnM4+6bj9l8IP7I2cPO+V1/2hLco+N1YMjzQHAAmKh96KEYrv1Y7nwBNMfr8mutIyfPDJur2Q12toMdiqIA0NkCDFc2NYBD9RPmlr8bm+baywGICeWCpAC47+fV5QKIX527Je1WOysBAKw1ajL++GUw4UxSMgB2D8ircYjHIAA2SjTHUFnXDo0KgL2ATRBZ9BkQT2AAEEs8nhENAMQv32vI9o8/RgAh+ACw3RIj81FLgOL5EELwFY+42JmPBoC2R/Y1gCLiEYs9AhpizOxHKQEAQCNDx+bQOz69+YFAPTQ0LoelBUBhGoTtgtXXF7OPjtZns1djOq50ADB5eyfIY7A+AvPIq8XaR2T9drhoCfnGR1sFOAHXy5BeJ0T9PqGUDtD0bQDdssptM5fB2OKjNEHbeiwH/aNInrDYP4O5yiJJCejjcIqs+tZ/UgfgYftNfBIARbLRj9joJdAPUUWeOQBQhFYVYwcOqGJWi2gaOKAIrSrG/gOIzt84TS+1BwAAAABJRU5ErkJggg==;" parent="1" vertex="1"><mxGeometry y="280" width="64" height="40" as="geometry"/></mxCell><mxCell id="104" value="" style="shape=image;verticalLabelPosition=bottom;labelBackgroundColor=#ffffff;verticalAlign=top;aspect=fixed;imageAspect=0;image=data:image/png,iVBORw0KGgoAAAANSUhEUgAAAEAAAAAoCAYAAABOzvzpAAAAAXNSR0IArs4c6QAAAphJREFUaEPtmDFIAzEUhtNdO+hixy7WxcXTRVBBKOjgpjgJFkERQVx0cenioosIIgpSwUl0c1AoCCq4aF1crEvHuuhQ3ZU/8Gq45tqHXHK99rLkepdr8n/58/JyMdHmJdbm+kUEIHKARQLOwMgPp7vC8701Z1rrCOKHklNSf3dfsi6H66s9YQuCFQAk/rF0KSYmV6V4iPQqaGMLQiAAIO6pcOcJYNAZlc9suCBQACQUMHTXEQALwTAQB1AM0C0DOKHlY4AKYHl6RxxcrAuqWwKAbr/nboEUGd27hKl44PsS8Nry/gtA3TZNQDAOQJ1JgkCzrEuIPl5LMlFCjbwBxWRMMA6Ak/py2phKjHwHADHcnJ8jnNqYsD/+2wgAVRgHxvFwbw2LhYc3K9mgEQBu0UezY1WBi2e31TQYWx7Ex/s7tWaYOSwYT4d9BwDx+e15KahUKAkIdgNQ1aoAOlI98tF38V3WoQaQ3jip6tQ5ALNPZwCdCyDexoHIiAMw8PMlR1RevgTWsgoAz+AKKnim/qb7cBEgmgp+1I/vAGgXUAObDgINgMQDRNL5+1BCDgoNAKx9Slg4Hz0IwGY6JbbyxZogCAfZiAO+OQAAMmtZsTI3LvZPb2SNgmtdye1m5e1MIi5y5YpcJnAAZp7EhxIABs2BUC5+ys9e5AAdAIohJpeBbw6gtU/2T6S6BESiRsG1WuiMoDqAAiTFD8QOk+LRn68ACILW866bOBjhsEMAvN4JHQC3EPfn8Hpfg+ld00dgdYy+O0AHAPfoKIxZ95pVFRbeqdeW4zJOGysAKBHCnl/P0gDAbcsRx2ljBQANpNF6Vg9RjdpyxHHaGAfAGUSQbSIAQdJvhr4jBzTDLAQ5hsgBQdJvhr7b3gG/boSWOJGplikAAAAASUVORK5CYII=;" parent="1" vertex="1"><mxGeometry y="320" width="64" height="40" as="geometry"/></mxCell><mxCell id="105" value="" style="shape=image;verticalLabelPosition=bottom;labelBackgroundColor=#ffffff;verticalAlign=top;aspect=fixed;imageAspect=0;image=data:image/png,iVBORw0KGgoAAAANSUhEUgAAAEAAAAAoCAYAAABOzvzpAAAAAXNSR0IArs4c6QAAAO9JREFUaEPtmNEOhTAIQ+X/P3o3mpjM5ZoQbRFCfZ6THgrD2db8seb6NwGQA5oTUAk0N4CaoEogYwmMMcYZl5lRk0TdfIXrETaviYAQBsArzLsO5dwSAFaxyLL4FMDTLKYG8M/CT4XevZcWQDXxO2BYCVQUXwoA0vZzaZVxgACQJkI5AHVEsZugSqB7CVw6NxBGmR4gABMBZD+AOWCPj90Ij8kNaH/oJHgmiAkBLZ4C4O5YfQuGIf5zAKuo6NugdADWPsLKOuVnyDNRei5FPfsg10BPAWRgUXsJQBTprN+RA7JmJiouOSCKdNbvtHfAD88scCnJMjDfAAAAAElFTkSuQmCC;" parent="1" vertex="1"><mxGeometry y="360" width="64" height="40" as="geometry"/></mxCell><mxCell id="106" value="" style="shape=image;verticalLabelPosition=bottom;labelBackgroundColor=#ffffff;verticalAlign=top;aspect=fixed;imageAspect=0;image=data:image/png,iVBORw0KGgoAAAANSUhEUgAAAEAAAAAoCAYAAABOzvzpAAAAAXNSR0IArs4c6QAAAqNJREFUaEPtmDFIHEEUhsfeCNEmltfkbNLktIkkgYBginQGq0BEUCQQbLSxsQmCaUJAgoFgQBBEOwuFg0Ai2OjZpMmlsdRGC5Ne+Qf+42Wc3ZvFexNub18zdzuzs/N/8+a9t9tlOty6Oly/KQAUHtDhBKIegcrDx1chvGvH+9HWFe1BED9UemH19w2UUjns7X40sSBEAeCKh8AkG33+1nbFghAdwOHJjjmq/UgEMFh5YgAh9wAgFAYY7u8CQJ49AAEQ7u07BnT/XMcACWBm7L35tD1n2OYGgMz3SGdZUiCjI4OgO1dIHZFlTMuzABbsprLbAtBMjWoAfLmehVBSMXT+68QWSWhhSJk0rcygBiCLG4aO1agNWg4AYkJr/lDhHKdRHqsAkMLSYHx5dP8Gg8mD3/9c0xAtHxAFwOfxp2Zq83sj9yPdQXzPgzteJ3i5WjO8J1cApFoJoLt8z3b9rZ/ZFgCqy6/NyPxX9bfC6B6A3Wf97/MCigeItgfA8w93huEY0Oji7hnAztMIgPNoHAc1D8CiGeQQ2AiB4kqV9I8iEC9tYaRs3lXr9kikBVZZNIXUDioAsMCt6Upj/Zc//xg3ujdLgYBHcPCcif4es3Z6aW+bmF303v7m1TN7fWX9m8FvtGsfFlPjSDQAzQS7/cgQMhvQA7Cr/eXeG9P5xGPQfwPgRnz+l6kPAqVJr2E2YL/0ALo5+wjktH5h4aCFhVSOah7gBjOfB1Q3hhuX75aXGl+GfGMJoFkMkPeGBE0VAFiEDFS+r8F84ZELdr8Wu6/EIYKyHjU1AFwIQRCCfMNLWqwcqyFaPjcKAFkHpAkCrNCxWXc6aXwUAHx4s93U/vrjg6AOoFU7pTVPAUCLbLvMW3hAu+yU1joLD9Ai2y7zdrwHXAObVpY4KBLKuwAAAABJRU5ErkJggg==;" parent="1" vertex="1"><mxGeometry x="64" width="64" height="40" as="geometry"/></mxCell><mxCell id="107" value="" style="shape=image;verticalLabelPosition=bottom;labelBackgroundColor=#ffffff;verticalAlign=top;aspect=fixed;imageAspect=0;image=data:image/png,iVBORw0KGgoAAAANSUhEUgAAAEAAAAAoCAYAAABOzvzpAAAAAXNSR0IArs4c6QAAAqRJREFUaEPtmEEoBFEYx9/e2cLFHvdiXVwsF0KpLQ5u5KRIkZRcuLjsRYqLlERplVLi5kAphXJhXVysyx7XhcNyp/+rb/vMzuzOi+9ZY77LbDNvZ+b/e//3fd+8iPrnEfnn+lUIwKYDku09H36el72/tjYx1h4E8Z3xIa2/qTVekcPZ6YayBcEKAKd4CPSKgcE5fckWBOsAbvMn6i575QmgI9mrACHwACAUARjO3yGAIDsACRD2dlsGZP9A5wAOYGZ4TW0dLyg6BgYAr/coZyYlkLIjJUHnvfz0ESZjfrwK4IWdpey7ACRLoxgAt1pPjZBXM/TymNdNEo4IlEwKqcogBsDEhn7HSvQGPw4AYvz2/H6F0ziJ9lgEABdWCcZuV0sZg8mbpy/nJETzB1gBsDPap6YOL0u1H+UO4qNt9a4mGNnOKvpPoABwtRxAXaJZX3rPPesjAJyvjqvU4p74V6F1B2D2qf93cwGJB4g/D4DWP+yMwDKgIIs71wBmnuJPA4D4o+lkydIEgcTFk5U3RSBeMvvTvUWWABdPD4K1TQLLAxVhKZVQy+c5nQsqVRTeLZo0TeIAig9vWgjCrex5QUGFALSJWFRlCkU9bGI+7Tp8dqxfn9/cv1D4jWNmPe0rgYoBILEQT+satuaJz+kKWjLcNeQAzGos0VgGwE08Bv0qALwA2ZWLL0t4B92lUw2JldLOEB/HHUA2p+sEpJB71XBwRJi0zCIOoBfkaxYfQnw3mD54uFjnbjGEEIBqOYDfx6R5EgVATuBfgfwLz2v984SGMSaCTBItxloBgAcRBADwEuS2fS4p3hoA3ghVEwQIJuNNZ9w53poDTKwsvQ3GIYgD+O4MSf8/BCBNuNbvHzqg1mdI+v1CB0gTrvX7hw6o9RmSfr9P+xScOFmOGnQAAAAASUVORK5CYII=;" parent="1" vertex="1"><mxGeometry x="64" y="40" width="64" height="40" as="geometry"/></mxCell><mxCell id="108" value="" style="shape=image;verticalLabelPosition=bottom;labelBackgroundColor=#ffffff;verticalAlign=top;aspect=fixed;imageAspect=0;image=data:image/png,iVBORw0KGgoAAAANSUhEUgAAAEAAAAAoCAYAAABOzvzpAAAAAXNSR0IArs4c6QAAAu9JREFUaEPtmTFIHEEUhsc+CsZG7a7xLLTxYmPQQEAwhZ1iJSiCIoLYaHMWFoKgTQiIRAgGAoJoZ6EgCCrY6NlooWmu82y00PTKP/Afz7n1bpSdOXdz06zuvnH2/94/b2bHKuW5pdo6H4sNmTk7qvL5Sl4Hg/j2RK/Wd5LdLtDZ821S7e78UIQgYbkC4w2AKf40c1gA4FOqS0kI6fTmY0Pyo45b+z6XBxOmQ8oKAIIBQl4lAEDD8+U/+yp3dffMHWFBeNcA6ICJwa9qdnYrPgDqmhNajJwGtD8yyzoAAPPzfdoBrqZBWRwgAYz3LamVrWk9DWB/CYBTAPci5wBWcFnRuQIAQLFGB+BvDE/NKUwBuMBFIXTiALy4zKYUSwi4J0HcXmb177jKZRIA2CIHAJkkiNdWbfRFI4BIrQLSAZzTrwXA5TCyAGwF/+poyoeOHP8t6BZZAOaWd3XgixY3unGQFwnxNa3Vz0T3/8woxDIukgCgyPzooSiu/Vj2Yg1AphUwZFb5jAA+JOv1rX9XN8p0AO6bH0m208smzskyaA5cCoCMDwIgn4f9VegdgPnxI6cBxO8tDqlsJqtrQLo7qa4vcqqxpUFf0dZy96F+FXoFYBZBc1pAPBoBvGThMF3gHACLIVeBRKr4NhjiJSj0Q5/umd+hZp5wnQKA+M2xlLo/f1BY4wmhVHHiEsg9AvqGmXU5vjMAFM/BCKGUeDyHcIjm1ZV4jOUVgI14xGBzhIIYWQCc97C/dAB/Nnd/QWAAAM1l9p05AABQ0VG4TEszwxRNoRKWL/HOAVAkQQRlem/9s6pNLugTITbzZMh26rwlzmkNkC8UdBrEww/EBZ0Syf8RvEWcTR9nAOTg8n8CFMoDj6CXBCyeG0ayBpiiCECKDxLGbwb0x17AtXhnNSAIAO7JM4KXALCvD/FeAcgDEV/i3lUN8J1ZG/HeHGD7MuWI87IKlEOY7ZgVALak4hpXcUBcM2urq+IAW1JxjfvvHfAEw2b9OEZhX9oAAAAASUVORK5CYII=;" parent="1" vertex="1"><mxGeometry x="64" y="80" width="64" height="40" as="geometry"/></mxCell><mxCell id="109" value="" style="shape=image;verticalLabelPosition=bottom;labelBackgroundColor=#ffffff;verticalAlign=top;aspect=fixed;imageAspect=0;image=data:image/png,iVBORw0KGgoAAAANSUhEUgAAAEAAAAAoCAYAAABOzvzpAAAAAXNSR0IArs4c6QAAAF1JREFUaEPt1QERADAMArHi33SFfOagHBm7+Fv8/hOABsQTQCBeAJ8gAgjEE0AgXgArgAAC8QQQiBfACiCAQDwBBOIFsAIIIBBPAIF4AawAAgjEE0AgXgArgECdwANfiQApEtGAKwAAAABJRU5ErkJggg==;" parent="1" vertex="1"><mxGeometry x="64" y="120" width="64" height="40" as="geometry"/></mxCell><mxCell id="110" value="" style="shape=image;verticalLabelPosition=bottom;labelBackgroundColor=#ffffff;verticalAlign=top;aspect=fixed;imageAspect=0;image=data:image/png,iVBORw0KGgoAAAANSUhEUgAAAEAAAAAoCAYAAABOzvzpAAAAAXNSR0IArs4c6QAAAqJJREFUaEPtmEEoREEYx2fvKFzscS/WxcVyIZRSHNzISZEiKblw4OIixUVKokQpJW4O1JZCubAuLtbFkQuH5U7/qW/7zM57O2Lm7e57c5nXe/PefN9v/u/7vpmYCHmLhdx/EQGIFBByAk5/gVRL55cJ78z9tTO7nE0E59sSA9L/+qaEL4fzsw3hCoITAKrzcNCr9fXPyEeuIDgHcPt8Ku4yV54AWlNdAhAqHgAcRQMM9ToCUMkKQACEvHW/Acm/omMABzA1uCa2TuYE9aEBYFILlG0Q5MUO5fLf1AAEhwPQfdMEosmYf0+DMJbncm4EFUJexdDb47MsktCjIWWi2awNrAHACpLhJivhN4a+ZeO3sAaAS/kvADjEsgAAZ003PbvtjQVsxm+ePHnZ2B/8uwJU6wFjZ7hbTBxd5nM/0h2cr2mu1jo7tJ0R9I4Np/mkTgHwiTmAqmSDfPSZfZV9xQKgup96nQrgfHp1VILond+3vi22qgCKBZAzGn4DaiRx9R8g58seAJynIIfARhDI4UTK/1AEq4+GGEAgbcQDKwqAwceTKelA7uFD9n7RXRcJAY+/s9ibFMvp7A8guvd40WSyrbYOgENQDVah8LSIDMGD4Vi8Ruy95OQnxmaXtNljeqRH3t88uBC4Rr+3vuQbR6wB0Fqo3EwfduTv1CZX8gcjfBjFClIAVjWerCv4vM55DAoMAA9mC1tv0mB+GEr1PvdEPSzlZ4dcAWqJTUBesu8SDno0k8rRigIwOa8G+Wmw34EowdBtpggAD4rFVGYSNK0BIOMIBEHADs/LML5txvs0tuyyAF8ZKoVxD3WA36r8Zmyx1Td97kwBMKiYJG0efHgBsQ7AdCWCGhcBCIp8qcwbKaBUViIoOyIFBEW+VOYNvQK+AdcfmzjBLMs8AAAAAElFTkSuQmCC;" parent="1" vertex="1"><mxGeometry x="64" y="160" width="64" height="40" as="geometry"/></mxCell><mxCell id="111" value="" style="shape=image;verticalLabelPosition=bottom;labelBackgroundColor=#ffffff;verticalAlign=top;aspect=fixed;imageAspect=0;image=data:image/png,iVBORw0KGgoAAAANSUhEUgAAAEAAAAAoCAYAAABOzvzpAAAAAXNSR0IArs4c6QAAArFJREFUaEPtmDFIHEEUhud6I8Q0Wl6Ts7HxtFE0EBBMYRexEiKCEgRJYxobGwkkTQiIKIgBISDaWSgcBJKAjZ51Lo2lNloEe8M/8B9v52b3PMM81917zd7e7jLzf/u/93amYHIehZzrN+oAyv0jt0nQq2e/VOekOhjEDxYnrP5nvUUvh6PDL0YTghoAij85P2gQPv5q0f4H8fitCUEVAESeVn82ABgoj9aF5wIABAOEPFJ4G0CWUwAFEDVApgHtn4saIAG8ff3JrO8v2TTIbBF0e36zFsjqiC7gRqjWGKwLyJ7P1kcASd8BMhU00iI4AF/f94G4+n1uP45wROA5jc4QFABz+3/WG6E/joIBgOhm3/2tgHl0NUCKkyC2hp436J49/lNvjegKjFCi5QSCOoADAcDm1Aszt/vDAEBn35MIhMmNauSc92YaQEep24q+qV0aF0Dl4xsz9v6ryqpQ1QEQ7LoA4t11QaYBEAI9T7vzHOIRmXEA8n9vvmxtDrEyimX/pgjEI1ADWEBD1YOgKUDxFO3melwbRKFEZ2Asj5XMaqUWAeI+e9/1hDoA5revHVIUugQdg5ox09Npti/+2ssz71YauC1Mv7T/re18N/iN4/bnlTsV0QcH4LZE6RbWBzoAb7mn1BUB4BOPG1IDQPZ9vFXXAXzbVIV6gZAOiAMQJz41ADAR1AHaHXlNAPI1Vr4N29OnpQ92f8ANmQLMdTrhonZtXYEjo5VN1aApwAm5awJ3kcQVIO7ndrncEyAA2RXiCii7R9J1eU0NgG8zxLfxgcnJis7JPso2KB3gAvDZVG6i4FnsCYQSzrmpOQADEkKcMC6acC/aX2jxGEcNAL8Ck4TJWqEhXhVA6Fy+a9Fz71NxwH0np/FcG4AG5TSP0XZAmt+OxtzaDtCgnOYxcu+Af9GoyzhRD3PTAAAAAElFTkSuQmCC;" parent="1" vertex="1"><mxGeometry x="64" y="200" width="64" height="40" as="geometry"/></mxCell><mxCell id="112" value="" style="shape=image;verticalLabelPosition=bottom;labelBackgroundColor=#ffffff;verticalAlign=top;aspect=fixed;imageAspect=0;image=data:image/png,iVBORw0KGgoAAAANSUhEUgAAAEAAAAAoCAYAAABOzvzpAAAAAXNSR0IArs4c6QAAAvJJREFUaEPtmT9oFEEUxie9BtTGlNd4NjY5bRQjKAEt7CKpFIOgiCI22lyKFBFBGxFFFCTBQECSzkLhUFDBRs/GxrNJGRstEnvlG/iWx9zM7STum10uu83u3szOzveb92/2RswOP0Z2uH5TAyjLAlrjx//GvLv79aPqIqkOHhII8UcaZ23zvoONgRzevH5oNCEkB0Dxn9demdNnbljxEBk60EcTQukAIO5L90MQwOHWhG3TsoLKAKBQwPBd1wCUgmHpFsAY4HMDWMLQxwAJ4OrUffNk9ZbheSgA+PJ9bApkZHSzRJHxQNUFQilvuwBk2iwKQlIAciUJgavsK4h+fV+zhRLOqBtwFB0TkgKIKX1j+hRZGKkCgJjYmj9GOPsUZf4YTx2AFBYD4/nRA30sLn36oVYNJgfwbPpEJvDyy/dZGYyUB/Gjh3Z7jeHc065KOVw6AKlWAtjV3G+b/vR+2vPQAmDtz7PPCiBea0OkbgGu30sXgCi4AQ+0yXv+3rl30UzeXuxzAY79P0FRDQAnt3KlZXVsfNu0ZwQ0F0KjNfijCMSHjvZk09zp9CycvCArCynWEyoAMBGuGgG4ELaS9tCXrgF3AEBAA5iZsVGzsL5hh5u5ORcc9tr5k7bt8dI7g2ucFx7M6aRBAsALMUnXCrYiHlkBol0AdB9aAFd3rLm3b3ifeHRKBgCTh+nLHO+mOwY6zl5aDgHQhaRCaQH4nSBwDRgUPzu7au/Xe7/t46wmVVwAL8jzR3eZOsvHsp/2NO9mX4XyrIUAGAOkJciVl+Ng5Rk41QC4E+fOMLTpcfvLfqHaX2YBXFP8/PxU5u+ucNzLrJEEgO8z+KAvwZy0NOdBG6B2e8X+xwDhCG6h4/qFU316kwHApLgFxtY2L3e70HwAHr14m/vnik+0BJQMAHM/Cp088YwhoWfyhOeJLgUAXxoj3g2isc/kBUxfexIL2M7EUj1TA0hFuqrvqS2gqiuTal61BaQiXdX31BZQ1ZVJNa9/iM/HG4YuIU8AAAAASUVORK5CYII=;" parent="1" vertex="1"><mxGeometry x="64" y="240" width="64" height="40" as="geometry"/></mxCell><mxCell id="113" value="" style="shape=image;verticalLabelPosition=bottom;labelBackgroundColor=#ffffff;verticalAlign=top;aspect=fixed;imageAspect=0;image=data:image/png,iVBORw0KGgoAAAANSUhEUgAAAEAAAAAoCAYAAABOzvzpAAAAAXNSR0IArs4c6QAAA2FJREFUaEPlmDFoFEEUhie9CahNzu4azyI2OW0UFRRBCzuDlWIQEkSRNNqkSXMI2ogooiAJCgGJnYXCEUEDaczZpPFsUsbGFNH+5F/4l5fJzOzMeXO7tzfN3u3N7u3/vff+NzsjasjHyJDrV7kAqE+e6fiAb31fi/580f9AFwrxJ6tX1OFj1UwGnz4+VbEh9BUAxX/b+pApHhMuXb6nYkPIBQDVFyELcgMA8YiubSD6GKXNAJTBRuurFcCJ+tlylwABQCgGYOifB94DZLuDm9MEITgUgH4vLxf1mBTNA/DArOPfP7YSwRhogRj0AFMZMP3pAbyOptlLX4gKgAGgaEAwAbh99bF68f6+4lEHIK/nPXu1PogKQDq5DsOnBcoM4Lqg150hOgBTq2NEWQp6qaJkAAhH+gXnuIzx2ZvVzt0bF4I0BU328JR0ivSAkOt85ro8IBRCNAAQ4vvS4yNaznHVPwBgrm8mRAUgH1rCoPPD7F6fOmrVf2v9Z/pbiOmFQIgOQAp/de2cmnn3ZY9gABg7PpqcO1AbT45/27+S49TLluI13QDwyYRoACh8Zbaudjf/KESTYrjq41FCIB2Ibz66mXy9+GAp6LWYGZAbAIjHw+PBdQB4KJkFpqzAHIr/XwBZEKJkgA4ADyGzQNZAte7eGAFEjG5LIFcAjB6yQEIIcX2UB83QB4JMf/k/tq4QJQPwx3oLdLm9CwgMEn5AEFkQCgNAF0UgBEHnp9vL+cwYaYg0SsBwQZifX+lUaof2Me17BpgAYAls2g9sLp9Opx+sPUz3BeQ9ZKdwQbABsHlBtBKwAcB5+SLE9b6cr78oYekrM4AdhnsMMiMKC0D6gtwW990XxPX0AQLAuenKmFrc3k3KAuJxzlQCuWcAIwwvQO/HwHrAVM9y54gbJ4y2vBbij0xUVKPZTgHYxBcGgN4hbIZmA0UzhXgMRp9vny4AJgh984CQ3i+zhZ8JCkIZefyG6GNw84UA7lw/r56//ZzZDQoNwGSkMvJSuF77pQQgy4eewMj7ANhu76hGY2pP0AcqA0xlZKp9W/SHAgDEY5jqf/HJwr6uM/AZwLKYnltQung9E0oLQEJgmfiIx9xSZIBsmzBF01rAFP3SAWAm6BBs4ksJQF9p4rvr9blUJdDNavMfkgc8RwPn2v8AAAAASUVORK5CYII=;" parent="1" vertex="1"><mxGeometry x="64" y="280" width="64" height="40" as="geometry"/></mxCell><mxCell id="114" value="" style="shape=image;verticalLabelPosition=bottom;labelBackgroundColor=#ffffff;verticalAlign=top;aspect=fixed;imageAspect=0;image=data:image/png,iVBORw0KGgoAAAANSUhEUgAAAEAAAAAoCAYAAABOzvzpAAAAAXNSR0IArs4c6QAAAzxJREFUaEPtmTGIFDEUhud6PVAb124b10IbVxtFBUXQws7DSvEQFFHERptrrlkEbUQUUZATBUHOzkJhUVDBRtfGxrXZ8my0OO2VP/APb+PLTLK3ySxzO83czmSS/N/7k5fkZrJ1fs1Uob+9+8Bfn3Z7Xz5E71/0BmyhEL+3ecI83rKjmb1+daeQxSgQbMBFdSQFoIn/3HvvBLCnfdC8C4GANo4dv5I1WpvzepduLzrrmAgAFAoY2t++ADTxpOCCUBsAED9/dTGP+qXTh7N7T9+WuqBSAOgd5gBtGMAJsDLelzmA4iEaF4X7QJgYABdP3sruv7iW8e4LwLa9DUFOMNowiAqAszEjaE+CPqlQOsCuD99r496OPNtZ6f/KOp25Ic3RALBjtLkUyzTIVGiD+PltYFIk7rg+DV6aO4cEM4NsA8/kzK9BqAQAIoiOj+NCXfONWVPV0spqDkXWTQguF1w+cyS9AzQXhAIhRELYtrNhquh0+0MgJgqAr8hH+7b/V/Tcx++Fn0snYI6Rw0EOBbuSpA7gWOcYfnjqkOnP+efv8n5B/OyujarYuQe9DN/I8rIOQIAT4AJAWFhYNnuMiQDAGVoqoxjmfaS6EAAoC2d0b57Njl5/bKoGBMwHPgDs6OP7qFkAHeWFDtvRxDsJYENrqyn+p//D3KUDWA7PCIDWZ5otc0AlABgpCJIOQPS59tdcQKGD3sAMAVkG77TVIQCE2D+6A9DA8oX2UDTtOUBzBcrQPTaAcYqPCoBzgAag2W56JQiIJzCOf9e+4O6TN4WHLJr9owOQEFa//jYTGGdxLwJWxhi3+CQACIG5viy/22DKIo/yRdF3RZ7tRMsCUggWKdpix8cFWCO4xv1axSdzgO0C/JaLHwiUF+cNPhsFQFnkkzqAAFwR7z7bn7/a1LqRH4vJ8tr4d1nfV3xyB8jTYIrjlleKxVZYXtqpkCY+RHglDrABlB2Jyx2gdIAtfhThlQMoOuvDpCk3PS7xaxFeCQA0KneIrrwu/7GhiR+H8EoAuKLqkw5jlUmyDrCzQNkxdyyxWr3JAKQUFdLWFEAIrTqWnTqgjlEN0TR1QAitOpadOqCOUQ3RtO4d8A+5xx1Hk4O6bQAAAABJRU5ErkJggg==;" parent="1" vertex="1"><mxGeometry x="64" y="320" width="64" height="40" as="geometry"/></mxCell><mxCell id="115" value="" style="shape=image;verticalLabelPosition=bottom;labelBackgroundColor=#ffffff;verticalAlign=top;aspect=fixed;imageAspect=0;image=data:image/png,iVBORw0KGgoAAAANSUhEUgAAAEAAAAAoCAYAAABOzvzpAAAAAXNSR0IArs4c6QAAAmNJREFUaEPtmDEvBEEYhud+AAWdbgui0VgUBJXEFboTrUQQjUKh4H4BnY5EopIInQjJVUg0nFo09ws0/gB5J97Nl7nd25OdGfZ2p7rs7tzO+8z3fvN9W1EFH5WC61clgDICCk6gtEDBA6BMgv/SAuH47Bcis/n66Hx9zl9gWozikgTifuNgVU9b2D1zDsErAIhbrG5HTO5uj9oESkA+ouBPAEA4QCQBOJ0e0ZDWnt7bcrRtW3gHQEUEkHYK4bmPt5Zan/pUGxf31i3hBIAZxqbIyWBJDY4GOgIwTlbmVRAG2vPY/f6xPrV83NRRgpErAPQ5xUGA9D0FEQAEI9Rl4uM1RgmAPbeure8+1mI1AqT4l+ZDtPET4Zz+bYIAJOl3QEAUYGD+Vu1QC3eZDJ0CoHDCqNevopCWEcCQlwAa5zNqb3/A2c5zd7wBwG5CdJwFhmrDqrpzo23ACOhpAKRPC/QsADP70wKFASBzgLRACeCHAC1gJkEegy6PP+9JEC9MsgDqALMYwrWkcjmtevzNfaenABfSqQ7gmY9nAAHlrlkI2a7/JSAnAPCCbitB1AgElARALtg2DOsAWOd3CkPU9iyEWCTJCOBcVo6ASTi5AMDy1YQAOByyGcI1CMSABWRfkLtuEP2AFGpCIBzZDlM8Acg5/K9cNENceKd2mMLjAGD3LzfDSD9aYtdHodUckHb8xH0Sk3PYGfIavwjZ9r2zU6AbAOYzUhwAyfbYpXAnhVA3AGR+iPO1z0/iWK9XC+CFaZ/F0yDavu8dgG0BWf+vBJCVYN7nlxGQ9x3Muv4yArISzPv8bzzo6jg8TbSyAAAAAElFTkSuQmCC;" parent="1" vertex="1"><mxGeometry x="64" y="360" width="64" height="40" as="geometry"/></mxCell><mxCell id="116" value="" style="shape=image;verticalLabelPosition=bottom;labelBackgroundColor=#ffffff;verticalAlign=top;aspect=fixed;imageAspect=0;image=data:image/png,iVBORw0KGgoAAAANSUhEUgAAAEAAAAAoCAYAAABOzvzpAAAAAXNSR0IArs4c6QAAAoxJREFUaEPtmD8oRVEcx48dhYXxLZ7F4rEQSikGG5kUKZKShYHFIsUiJVGilBKbgXqlUBaexeJZjCwM2Ol76vf6uc69zs39Hb377lnO+/O7v3t+n/M9v9/v3jJV4qOsxONXCYBEASVOIDkCJS4At0kw09T+aQM8d3vpTJnOboTgW1J9Ov6ahlQgh9OTNeUKghMA3uARoN/o6Z3Sf7mC4BzA9eOxusld+AJoznQoQIg9AASKARjezwmAOCsACRDyNh0Dkn+scwAHMNG/ojaOZhTNsQDAaz2VsjAlkLIjT4Imnzb9hI1N5FUAi/WWsr8AMPmzCczWRgyAqdZTI+TXDL3cP+omCTMGSiYNqcogBsB2B8LYSfQGkQNAQLY9f5jgYSvRHosA4IFxGFT6kO23W+t94x+9eij8JxE0v7ETAFuDnWrs4PxbwABQ2VihfytP1+r5I/+s54HNnKJrYgWA2l6aOQSig+Czy8P6a/fsrojsnSmA5I/dxOAqMKkCNhQ8B0B+JNQgdgSwaDrnONMEgeinMsHvBLD7fMx3p9ViNq8VEZRkeQ9iUzpFAGCBh+OZwvrf7t4VT2w22R/wCByUM1JXqXae3vSlI9MLRheTQ1369/W9M4XPmHdWFwKPkTMAphV7ofDKgATJkyEpALtal67+4c4UPIz+DYDNLmf32wpmVemlwnsB07VcASRzsiMgT/lXDQczhk3jJKYAnszmNl70gvi7QGp3ebDed4W8nSYAv+UA7s8maYoAwCK8iYqeA3h/76cSbssDtgnIRnnOyiCB4GUwKAhAs7UNG6ifvZgC6IZhnuXD2BYNgKgWKuVHXAFSC4/KbwIgKpLF6idRQLHuXFTrThQQFcli9fMFfIGCODINllUAAAAASUVORK5CYII=;" parent="1" vertex="1"><mxGeometry x="128" width="64" height="40" as="geometry"/></mxCell><mxCell id="117" value="" style="shape=image;verticalLabelPosition=bottom;labelBackgroundColor=#ffffff;verticalAlign=top;aspect=fixed;imageAspect=0;image=data:image/png,iVBORw0KGgoAAAANSUhEUgAAAEAAAAAoCAYAAABOzvzpAAAAAXNSR0IArs4c6QAAApJJREFUaEPtmE8oREEcx8cdhYs97sW6uFguhFJbHNzISdkUScmFi4uLFBcpiRKllLg5UFsK5cK6uFiXPa4Lh+VO36nf9jPmvZ2XnbF/3lzm7Xu/fTPfz/zm9/u9qRM13upqXL8IAYQeUOMEwi3g0gHinX1fJuOlH2+dLYyzgSC+Ozoi9be0R305XF5sCVcQnABQxUOgVxsanpePXEFwDuA+ey4e0jeeALri/QIQqh4AhKIBhnodAqhmD0AAhHvrtgG5f1XHAA5gdnRD7JwtCuqrBgDP90hnQVIgRUcKguq7TOqIIDYlzwKYsJrK/grAZmq0BkCX66kQ8iqG3p6zskhCj4aUSc1WZrAGIIgbmtraqA1KDgBiTGt+U+FkZ6M8tgKAC+MwKPUh2u/3tHnqn7p7KTyzIZoP7ATA3viAmD65/iEYABo7GuS9+lir7D8zr7If202L1PqkSCwdWv8ocgqAyl7qOQSiQ+Lxu+IBkPvDA9C4F+i8AjZYeWoVDQDiaZ9jTxMEEheN+58JQDwaFVJ0HTRwFrO3sgUg/nQmXhg7//QheGArNik8Bzz+n+VETKymMj+A6N7DiyaT2sEZABPR3AYBEvGAtkoy0igOcnlpklxY0b5ubmJQ3t8+uhK4Rn+wueIbSK0B4DOkrUBRnwc8bse9hrIBASAPwKpGYs2/AOjEw+jfAKjBTLdkqePewu2m2FrhYERnyz2A3JzsCEgu8y7hoEczqRyteAAG5wWQ7jCU6n0uVj0s5d8TBIAHxWLbyqSIsgaAJqeC4B84XgIIGGwrMguowgCB1wJeK2NqV2zlgzy37gHqdvBzS9uHHzowTgAEWRHXtiEA18TLbbzQA8ptRVzPJ/QA18TLbbya94BvE3mJOK4zo+UAAAAASUVORK5CYII=;" parent="1" vertex="1"><mxGeometry x="128" y="40" width="64" height="40" as="geometry"/></mxCell><mxCell id="118" value="" style="shape=image;verticalLabelPosition=bottom;labelBackgroundColor=#ffffff;verticalAlign=top;aspect=fixed;imageAspect=0;image=data:image/png,iVBORw0KGgoAAAANSUhEUgAAAEAAAAAoCAYAAABOzvzpAAAAAXNSR0IArs4c6QAAAu9JREFUaEPtmDFolDEYhtNdBXVp3W7xHOzSa5eKLQgFHdxOOhUsQksRiosu16FDoWAXEUQUpIIgSLs5WCgIttClnks7tC639bro0LpX3sB7fKY5/0SSaM7Lkjb3/cn/PnnzJfl71H9eelLqrwxcP3EZr/5lM9l7JRsI4odKt7X+7cb7thxu3ppVax+eKkKQ0GKASQLAFP+5vtEWwGBlREkItdrKSV/5go5ffjLfAuPiJJeYvwYAQlEAw/xbAgA8xDx781E197//4g4XgUUx/zwAOuD+xA01N7eaP4CLV0pahG0Z0P6YNeYBAFhYqGoHxFgGyR0gAcxUl9Tz1YeKtQ0AlwDEZ+MAZm6ZybkDAIBLoQPQ1+SDeYUlABeEToTBHYAXRhKjjaVYQkCbDcS3vYZuRy23SwBgyQYAZpAgXGa8XQz6IYAsdgHpAJsL/gRGdgBcRb4avnwq9N7W11Nt2QEwj7wvx0e1qKl3n1riIP5c/1krqzsv6grPMD4rAFBkXnoohns/tjsfAOjTvCO4uqwoLvguYA4IGHI2+bsEcKbcq5t/7B/q2nSA2WfIS1FSADz3s7a5AOLXH99VjXpDL4HaWFkd7DbVpat9ukZZbh4FuxQlA2DmAJsrEAPxKATQzsKhXBAVAHMBk2Cp4nYKhHgJDM/j2bFHr4PNPMFGAwDxK9MVdbRzrLC1EUJRUuLv3AG4VaKPULMu3yEKAIrnQITgKh5xEA7RrGOIxzjBAdD2mH0JwEc8YnFGQEJEiSU+GgAkMqxXcyYpjDAokP9LaCnERwVAUQRhc8D622ut5vPlxdanMTTKG2VWDsDLmydB27cAXnklGNsVWX4h9l1GLvHBc4A5qPwiTIEQVVQAjV+PsnOAFEcAUvzvBPHojD6wFcYUHyUH2ByANnlDLALAPmKLTwZAXodTiCpaXvL3JDkg5Yz6iE/iAN8XSh0f3QGpBfmO1wXgS6zT4rsO6LQZ9dXTdYAvsU6L7zqg02bUV89PnGPdONOeSYAAAAAASUVORK5CYII=;" parent="1" vertex="1"><mxGeometry x="128" y="80" width="64" height="40" as="geometry"/></mxCell><mxCell id="119" value="" style="shape=image;verticalLabelPosition=bottom;labelBackgroundColor=#ffffff;verticalAlign=top;aspect=fixed;imageAspect=0;image=data:image/png,iVBORw0KGgoAAAANSUhEUgAAAEAAAAAoCAYAAABOzvzpAAAAAXNSR0IArs4c6QAAAF1JREFUaEPt1QERADAMArHi33SFfOagHBm7+Fv8/hOABsQTQCBeAJ8gAgjEE0AgXgArgAAC8QQQiBfACiCAQDwBBOIFsAIIIBBPAIF4AawAAgjEE0AgXgArgECdwANfiQApEtGAKwAAAABJRU5ErkJggg==;" parent="1" vertex="1"><mxGeometry x="128" y="120" width="64" height="40" as="geometry"/></mxCell><mxCell id="120" value="" style="shape=image;verticalLabelPosition=bottom;labelBackgroundColor=#ffffff;verticalAlign=top;aspect=fixed;imageAspect=0;image=data:image/png,iVBORw0KGgoAAAANSUhEUgAAAEAAAAAoCAYAAABOzvzpAAAAAXNSR0IArs4c6QAAAF1JREFUaEPt1QERADAMArHi33SFfOagHBm7+Fv8/hOABsQTQCBeAJ8gAgjEE0AgXgArgAAC8QQQiBfACiCAQDwBBOIFsAIIIBBPAIF4AawAAgjEE0AgXgArgECdwANfiQApEtGAKwAAAABJRU5ErkJggg==;" parent="1" vertex="1"><mxGeometry x="128" y="120" width="64" height="40" as="geometry"/></mxCell><mxCell id="121" value="" style="shape=image;verticalLabelPosition=bottom;labelBackgroundColor=#ffffff;verticalAlign=top;aspect=fixed;imageAspect=0;image=data:image/png,iVBORw0KGgoAAAANSUhEUgAAAEAAAAAoCAYAAABOzvzpAAAAAXNSR0IArs4c6QAAAphJREFUaEPtmD9IHEEUxsfeCGqj5TU5mzSeNkoiBAQt7AypBEVQJCA2pkljEwKmCYKIgigIQohdCoUDIRFs9Ky9NJam0ULsDd+QT96te87tsm/UcafZ3buZnfl+8/7NNpln3pqeuX6TA8gtwBOBUvfrmyRTVU4OvFinl0kgvrcwYvW3dxUa4rC3u2R8QFAHQPFHZz+dwoeGZ20fiMe9DwheAEDUceW3E0BP6c2t8CABQCAbgMQ9U3gOICQXQABEDLjPDWj+QcYACWBm9Kv1gpWdeSPvgwIQzflJUyDjBLJAtGWdGjPPAjLnM/URQJI6QLqCpluoAYjL+xJEPRgXp2e2WMIVDe/RzAwqAFjQOBN/gg5axVHmAKApad2fgEPm5bEKAAqSINb7Xjp1Th7+uU2VskjKOvDJhagDWHs/YOeb+v7LAELLqxemudhRA+O6+te8W61Y8RDOK8ZiXBAACKGeGVAs/y8vjtvbwY+bTxMAzP/HdMnuLK2A4gqlxo7EEI8GC6A7ZW0NKi5A8RQMCGkaXAZxge3TYNF8LldrgMS9N8mxWg0A/R0LBACYNHY0GgylQCmG42lBiAUTnS1m4/zKdpuYW4hl+mHsrf19eWvf4B7XjW8Ldd1IBQBTIcVCJAFEV13e7q/5qbX4xT7LLMD4QAvADncW2+4AiBOPTg8CgBDkKqMFEqu9uK3kpzN5HpAWEH0XgZxXLy0cXNFcX5XULIAA4g5CcYccly9bs//vAjIoumKLK2h6B+DakSg4PMtzhUuQC0j0f3UAmJBWACGNCEAWkQVUI2OSCmd/dQBphMgSWlM8IKgDIGltIY/SAtIuyuc4VQvwKSTtXDmAtORCGZdbQCg7mVZHbgFpyYUyLreAUHYyrY5/toOLOIni5xEAAAAASUVORK5CYII=;" parent="1" vertex="1"><mxGeometry x="128" y="200" width="64" height="40" as="geometry"/></mxCell><mxCell id="122" value="" style="shape=image;verticalLabelPosition=bottom;labelBackgroundColor=#ffffff;verticalAlign=top;aspect=fixed;imageAspect=0;image=data:image/png,iVBORw0KGgoAAAANSUhEUgAAAEAAAAAoCAYAAABOzvzpAAAAAXNSR0IArs4c6QAAArZJREFUaEPtmDFIHEEUhsc+ERKbWF6Ts0njxcZgAgEhKewMVoKHEBFB0sTGxkYE00hAJIGgIAiinYXCgaCCjZ5NmpyNpTamUHvlH/iPl7mZdZfsjOfeTjN3t3Mz83/vzXtvp021eGtrcf0qB5B7QGACpe6+2zhLVk8OgnhnkEUoGOJ7CgP6a0dXIZLDzvZ3FQJCMACmeAh0tQ8fJ/WjEBAeBMDR2ZY6ru47AbwuvVWAkHkAEIoGGObnHECWPQABEO5tOwZ0/0zHAAlgfPCbWtr8qthnBoDM90hnSVIgoyODoDlXnDoi7hgvWQAbNlPZ/wLwlRq9ArDlehZCrmLo8s+ZLpLQoyFlsvnIDF4BxHXDJOPSrg28AICguDV/EvEYm3Z57A2AFBYF41fvywYGo4en//yWtmg5eTAAP4feqc/re/Xcj3QH8e2vnlqd4NOPquJ/MgVAqpUAnhRf6Ec3tQvdA0BlfkT1T62k7vYP7gGwPut/mxdQPDb66AHw/MOd0XAM2Oji5hmA5dlMAJwvrWPhNQZgsxtjJXX1+1ohsBECxRVK0ZciEG9r0/1FNVup6aMRFWBl8eSqIbwBoHgKIIQkaQ/HA+DYMyaUO9vV8vmVnqr8ZcY65cTwe/374uquwmf0ywszDfHECwBaBdaXAJKIx1hkCMQDAuCRoQfAqp3F5w3T2sRjUFAAtBYWlpakMO4aAmWT0JgN+H+Okx5AN+czAjmv/dVw0KO5KkhvHmAGMpf1K2tv6o+eFefqN0NR3kIA98UAOYcraHoBgIXN4GS7DeYLj9yoeVtsWu5RZQEKs70KR90KS1hpv/yYnuXNA+RCtBqF4RXX5ZIYK2uGtPK960gFAxBXlM/bHxuEYAC4uG+LJk21QQAk3VTI8TmAkLSbca3cA5rRKiH3lHtASNrNuFbLe8AdaQyvOHl1LrgAAAAASUVORK5CYII=;" parent="1" vertex="1"><mxGeometry x="128" y="240" width="64" height="40" as="geometry"/></mxCell><mxCell id="123" value="" style="shape=image;verticalLabelPosition=bottom;labelBackgroundColor=#ffffff;verticalAlign=top;aspect=fixed;imageAspect=0;image=data:image/png,iVBORw0KGgoAAAANSUhEUgAAAEAAAAAoCAYAAABOzvzpAAAAAXNSR0IArs4c6QAAAqlJREFUaEPtmE8oRFEUxq89ChuWszE2NoYNodQUCzuyUiZFUrJhY2MjxUZKojRKKbGzoKYUyoaxsTE2lmxYYE/frTMdd96/O+beMW/e2bz5c9979/u9755z7qsRVR41Va5fRAAiB1gmkOjo/Q5yy+z9tRV3WrkJCYb4rtiw/NrUFvPkcH62KWxAsAZAFQ+BbjE4NCf/sgGhLABun0/FXfbKFUBnok8AQugBQCgCMNTPEYAwOwAJEPZ2WgZk/1DnAA5gZmRdbJ8sCDqGBgCv9yhnOiWQsiMlQfVaQfqIoGOMVAFMWC1lfwVgqjQaBeBU66kRcmuG3h6fZZOEIwIlk8JEZTAKIKgNdcaVujcwAgCCgvb8OuIxttTtsTEAXJgXjL3u1gIGkzdPv34rtWh+cWsAdsf6xdTRZb72o9xBfH17naMJRneygs4JFQCulgOojTfLv75yr/IIAJm1CZFc3C+57a06gOzPHYCnT/2/kwtIPCZa0QAgHgKxpgEAgWVAQVDUNYAnT1GxACD+eDohdXw8fP6CQOJiCe+XIhBvIvMbXwJkew4AN1Wzu18JJPdQK20ChpEqAACUwDBpgIALdAMVAvmAYikZFyuZnEyKXqWVt81+3aNRAHwd83rPSx8XSLA4KF4OUy31Iv3yIf9OzS878pwdH5C/bx1cCHzGMb2x7FpJjADABIJ2gpnDnryQhvhq/s0QV0fJkhyAp9oSbywA4CQeg8oCgM/ObSdIGx4+Vn1bzDdU3AFkczqXgLzk3iUcHBF+ewdjDlAB4DvtBPkOzy0v8HVMYwiAXw7g1/TrIq0B4H2A16S4WyAEsCquCqhPVfeNDsYHBaZbWdTxVhxQzCR1oRVzD5zzbwEUK0j3vAiALrGwjY8cELYnqqsncoAusbCNr3oH/AB2MKY4pMYbNwAAAABJRU5ErkJggg==;" parent="1" vertex="1"><mxGeometry x="128" y="280" width="64" height="40" as="geometry"/></mxCell><mxCell id="124" value="" style="shape=image;verticalLabelPosition=bottom;labelBackgroundColor=#ffffff;verticalAlign=top;aspect=fixed;imageAspect=0;image=data:image/png,iVBORw0KGgoAAAANSUhEUgAAAEAAAAAoCAYAAABOzvzpAAAAAXNSR0IArs4c6QAAAsVJREFUaEPtmD9IHEEUxsc+ComNltd4Nmm82ESiIAhJYWewEhQhQQLBxjQ2NkHQRoQQEggKghBiZ5HAgZAINnppbLw0lqaJhdpHvoFvea6z/7idd+e50+zd7uzu+37zzXuz02Hueeu45/qNOoDKwLP/aaDXfu+rxKbyEgqG+MHSuP3b3V+K5fDj+7rRgKAGICweAqPa8xdv7SUNCE0BcHi6a45qvyIBPKkMG0BoewAQigYY4d8FgHZ2ABIg7O2aBrR/W+cACWBuYtV83FkwPLYNAFnvUc6ylEBmRybB8LPSrCPS9vFSBRBwuJQ1CsBXafQKwFXruRCKWgz9Ozm1iyQc0VAy2XxUBq8A0towS7+81wZeAEBQ2jV/FvHom/fy2BsAKSwOxpenfbcYzB78uXEub9Hy4WoAPk+OmFdffwa1H+UO4rsedzpN8PJTzfAeVpE77QCKkWolgAflHnvpqv7XHgGgujJtxt5tBrcsjpXN+2rdToM4V8mKkZQ4vTpABikdgNHn+t/lAoqHcgDgvTO9XWbj7MICmZlfcjrnzdSoPf9ha8/gN44ba0uRucMLAAr/9roSjCZEoGEasLlcgWsYeTYJgA7AqPaWH90C4BKPTqoAIJ7WJYCL40uDxEYIjLxUid8Ukfa3oy4cQJvzWQRyVj+3cHBESyqbuTvABQCBEILTtxEnMT1kRSCApBwgH5dUQbwB4PyVLsgiHn1RIZAP7lwVCGfocK2XpQ8CZSMwniOArPDS9s/dAa4Xx5Ws6vZQcMvD8nKwM5TFxmnFuvqpAXDtBvODRwYW3i1OSmKNiMe9TQEQtyNMQb4+f8PAmgYgKjvLfQMEi8/hpEzeiAvUACBIToM4UQAgF00+xatOgbSifG5/NTUJ8uW+RzTrdFCZAlmD0uxfANCk3YrvKhzQiqOiGVPhAE3arfiuwgGtOCqaMV0Deai3OAIC5L0AAAAASUVORK5CYII=;" parent="1" vertex="1"><mxGeometry x="128" y="320" width="64" height="40" as="geometry"/></mxCell><mxCell id="125" value="" style="shape=image;verticalLabelPosition=bottom;labelBackgroundColor=#ffffff;verticalAlign=top;aspect=fixed;imageAspect=0;image=data:image/png,iVBORw0KGgoAAAANSUhEUgAAAEAAAAAoCAYAAABOzvzpAAAAAXNSR0IArs4c6QAAAldJREFUaEPtmLEvBEEUxud6FDTabdBoLAqCSkKhI1qJIBqlgvsL6HQkEpVE6BQkVyHRcNdo0Fyr0Rw9+TZ5m3dzu7N7yZvN7u1MdcnOzs33e997b2YrquSjUnL9ygFwDig5AZcCJTeAK4IuBVwK5JCAPzH3x7dVbzxZc6q1hXWuXJRJEObVjjbaXl/cv1C2IGQCAKKWlvdCUfd3J7GC9OjTSz0BAMIBIgnA+cxImwM2nz87ElUKSGYOIAUEoNvSg/e+35tqa7qltq8exFJCFECcfUnslLeihsa8wAF8nK0vKM/3FHId0R8Y7w8fr53WA9dg5BoA5TkXx/OeBBAAbnNYnAqfDoEAYF0AfGneikUfexJxABf/Wn8Mozfpzwe/dRAQwyPdevtRBIEDgHist7t6HAjHkMp92qQVACScYFSrN6GFuQNg9b7RYfX78aUgFi7QAdQuZ9XB4aB45K0C4PmN6EE0H9wBPQkgzgEEQU8BRD+uEOKZjdzPxAGmGsAdgVTBXEBAi9MLZNLZoduWyueL1gAsnLYLkGi9HZoA8LlSxVAMAPV4UzTQx6kIcgC6A/Q1qIsALrkklwCoVekCAIdG1EEIzyAMAw6Iugzl/iSIswAXqkMgOPwoTKL5XACIGrR2Lg9CtGHTUZiEmwBA/PWO36HfZicQqQFJVTjqOhz1jn4LpDl0G5TKe/EukAaAPidKDEBFXYVtCBc9B6QBwOuDKY+z/ByGfWeSAvijtJ/EkmBKP88MgPTGpdZzAKRIFnUd54CiRk5q384BUiSLuo5zQFEjJ7Xvf6GRjzinwIkNAAAAAElFTkSuQmCC;" parent="1" vertex="1"><mxGeometry x="128" y="360" width="64" height="40" as="geometry"/></mxCell><mxCell id="126" value="" style="shape=image;verticalLabelPosition=bottom;labelBackgroundColor=#ffffff;verticalAlign=top;aspect=fixed;imageAspect=0;image=data:image/png,iVBORw0KGgoAAAANSUhEUgAAAEAAAAAoCAYAAABOzvzpAAAAAXNSR0IArs4c6QAAAF1JREFUaEPt1QERADAMArHi33SFfOagHBm7+Fv8/hOABsQTQCBeAJ8gAgjEE0AgXgArgAAC8QQQiBfACiCAQDwBBOIFsAIIIBBPAIF4AawAAgjEE0AgXgArgECdwANfiQApEtGAKwAAAABJRU5ErkJggg==;" parent="1" vertex="1"><mxGeometry x="128" y="160" width="64" height="40" as="geometry"/></mxCell><mxCell id="127" value="" style="shape=image;verticalLabelPosition=bottom;labelBackgroundColor=#ffffff;verticalAlign=top;aspect=fixed;imageAspect=0;image=data:image/png,iVBORw0KGgoAAAANSUhEUgAAAEAAAAAoCAYAAABOzvzpAAAAAXNSR0IArs4c6QAAAp1JREFUaEPtmEEoREEYx2fvKFw47sW6uFguhFJbHNzISdkUScmFA5e9SHGRkihRSombA7WlUC6si4t1ceTCAXf6T77t22fm7YiZ1+57c5ndN+/NzPf7/vPNNxMTIS+xkNsvIgCRAkJOIFoCLgWQbO36NBkvd3vpzDHOBoLx7fEBaX99c9yXw+nJmnAFwQkAr/EwUFf6+qdlkysIzgFcPx6Lm9yFFkBbslsAQsUDgKEogOH9HQGoZAUgAELeqmVA8q/oGMABTA6uiI2jWUF1aACY5AJlGwR5skN7+W9yAILDAaj6NIFo8s6/b4OYLN/L+SQoEdIlQy/3jzJJQo2CLRPFZm5gDQA8SBM38YTfO9SXjWVhDQCX8l8AcIhlAQDG6g49tPUh2m93NGm5jF09KNtsnA/+XQHemQPG1nCPGD84L2oCgJqWavmsKtEg64/8s6yHNnOCvrFhNJ+IUwCU9lLNIdCkYHx2eVT+Tc3tWj8VWgVASwHeROEqUKkC75DxZQ8AxpOHSdJcevGk/50AvI9SlksAxh9OJAv2vt29C11g00VCwMM3AEBKsgHDyhJQAVAZ6oXCdwYESCiHykIqIRaz+SIgqj550mRyrLYGwGTvz+53Fl6rTSwV7gX4txQr0o01YufpTTalZzLK7qdGeuXz9b0zgd+od1YzvsvIGgAezOY3XuTE+F0gpbvcEu9dIRIfAkAKgFcbE3U/AKiMx0uBAMDAPBnil6F+94FkleoswRXgTbEJyFP+VcJBjWKSOVpRAHcPgSAIOODoghk/NaIPOgxJ2X8vAR4USy0zk6DpBADPA/wmRVkjDEPOwI/TtrZEJwDIU6U8YvPcr1OLdQClZBp0ewQgaA8EPX6kgKA9EPT4kQKC9kDQ44deAV91DI44LUsUMwAAAABJRU5ErkJggg==;" parent="1" vertex="1"><mxGeometry x="192" width="64" height="40" as="geometry"/></mxCell><mxCell id="128" value="" style="shape=image;verticalLabelPosition=bottom;labelBackgroundColor=#ffffff;verticalAlign=top;aspect=fixed;imageAspect=0;image=data:image/png,iVBORw0KGgoAAAANSUhEUgAAAEAAAAAoCAYAAABOzvzpAAAAAXNSR0IArs4c6QAAArhJREFUaEPtmE8oxEEUx8cdhYs97sW6uFguhFKKgxs5KVIkJRcuLi5SXKQkSquUEjcHakuhXFgXF+viuC4ccKfv1Pv1Gr+/7czU77e/d5ltZ34z733mvXlvpk7UuNTVuP3CKoB8Z99vGOClpztrellbCMZ3Z0el/S3tWV8OV5c7whYEKwBU42GglwyPLMouWxCsA3h4uxCPpVtPAF35fgEIiQcAQyGAof5OASTZA3AAwr3dwoDcP9FnAAcwP7Yl9s6XBbU1AyBMLRDbQ5AXO5TLo9QABIcDcJszDMQwY7SnQSjLczlXggohr2Lo4+VNFkloIUiZEJO1gTEA2EFSPMxO+I2huUyEhTEA3JWrAcAhxgIAjA176TnsafvHZub+1ZOXifuBdg9QtQeMg4kBMXt64+R+pDsY39jR4Grs+H5J0DcmjOaLWgXAF+YA6nOtsuun/C5bAChuTomhlSPnVkhepRuIVQBU91Pr5gVkPEAAAJfVoZxYL5YlFL8w41kj6F5hDABXEO4MQRiQkIurMYCdJwEAjMvmsxLGdKZRFCpfsnt6ac01fBYmB+X/u8fXAr/RFrbXPN8XtAMgw8/m8lKRr+dvgYONIJDWMMpPaPc5PPIA7Gom1/zvczfjMcgaABhPsUsAOARfi5VOhIeaEbgHqDUGAamUPyUctJCg1KnVAwgAxS/3gijGYywyBM4DLgQg6Azg3wQdmkYB0C5SvlfTnmog9xoYgX5+n8B/QQZFBa0VABYPWwRhbPGk19G3KbfhvAxF2cGoBqvjtQNQF/C6CdKFh49XX4uD4rda4/G9VQBcYbrpqUbwp/NEAOBhwVOaGstUMmM81Qu6493NY4x7AF/U72HD5KOHX6hYBaAjZnXPkQLQTTRu86UeELcd061v6gG6icZtvtQD4rZjuvVNPUA30bjN9wdNmaA409iEJAAAAABJRU5ErkJggg==;" parent="1" vertex="1"><mxGeometry x="192" y="40" width="64" height="40" as="geometry"/></mxCell><mxCell id="129" value="" style="shape=image;verticalLabelPosition=bottom;labelBackgroundColor=#ffffff;verticalAlign=top;aspect=fixed;imageAspect=0;image=data:image/png,iVBORw0KGgoAAAANSUhEUgAAAEAAAAAoCAYAAABOzvzpAAAAAXNSR0IArs4c6QAAAF1JREFUaEPt1QERADAMArHi33SFfOagHBm7+Fv8/hOABsQTQCBeAJ8gAgjEE0AgXgArgAAC8QQQiBfACiCAQDwBBOIFsAIIIBBPAIF4AawAAgjEE0AgXgArgECdwANfiQApEtGAKwAAAABJRU5ErkJggg==;" parent="1" vertex="1"><mxGeometry x="192" y="80" width="64" height="40" as="geometry"/></mxCell><mxCell id="130" value="" style="shape=image;verticalLabelPosition=bottom;labelBackgroundColor=#ffffff;verticalAlign=top;aspect=fixed;imageAspect=0;image=data:image/png,iVBORw0KGgoAAAANSUhEUgAAAEAAAAAoCAYAAABOzvzpAAAAAXNSR0IArs4c6QAAAF1JREFUaEPt1QERADAMArHi33SFfOagHBm7+Fv8/hOABsQTQCBeAJ8gAgjEE0AgXgArgAAC8QQQiBfACiCAQDwBBOIFsAIIIBBPAIF4AawAAgjEE0AgXgArgECdwANfiQApEtGAKwAAAABJRU5ErkJggg==;" parent="1" vertex="1"><mxGeometry x="192" y="120" width="64" height="40" as="geometry"/></mxCell><mxCell id="131" value="" style="shape=image;verticalLabelPosition=bottom;labelBackgroundColor=#ffffff;verticalAlign=top;aspect=fixed;imageAspect=0;image=data:image/png,iVBORw0KGgoAAAANSUhEUgAAAEAAAAAoCAYAAABOzvzpAAAAAXNSR0IArs4c6QAAAF1JREFUaEPt1QERADAMArHi33SFfOagHBm7+Fv8/hOABsQTQCBeAJ8gAgjEE0AgXgArgAAC8QQQiBfACiCAQDwBBOIFsAIIIBBPAIF4AawAAgjEE0AgXgArgECdwANfiQApEtGAKwAAAABJRU5ErkJggg==;" parent="1" vertex="1"><mxGeometry x="192" y="160" width="64" height="40" as="geometry"/></mxCell><mxCell id="132" value="" style="shape=image;verticalLabelPosition=bottom;labelBackgroundColor=#ffffff;verticalAlign=top;aspect=fixed;imageAspect=0;image=data:image/png,iVBORw0KGgoAAAANSUhEUgAAAEAAAAAoCAYAAABOzvzpAAAAAXNSR0IArs4c6QAAAqZJREFUaEPtmD9IHEEUxsdehWjjldfkbGy8pFGMEBC0sFOsBEVQghBsTJPGJgjaSEDEgCgIgmhnoXAgqGCjl9qzsbw0Woi98g18x3Pc25sjvPFcd5pZdmd35vvN+zfbZN55a3rn+k0KIKQF5Lv7Hn3mK/49C7YxwSaC+M/ZYau/vTMby+Ho8LcJBSEIAIq/uDmoKnxw6Lt9BvG4DgUhGACIuyyeVgXwKf+lIjzRACCUMNxrCk8BJNEFEAARA6LcgOaf6BggAXwbWTZr+/OGfSIBuDnfNwUySiILuE0jNapkAZnzmfoIwKcOkK6g7RaqAKLyfhyI26sbWyShR8P72plBDQALG5/St9YYzeJIBQAE+db9tcTL528mBshFSxAbPR+r6p06v66kSBZIGKwhWi5CzQI4CQD8Ges307snBgBau1rso+Zch+0fSv9sP7pefAaH7yQGANS5EKgY4lEgYefZF5YmzMCPreRYAMUCgtu427wP8WhvHgDMf28mb80bImXL5uP/CUA8YwDjiIY7qMUAipdmXk/ER7xAYGT7OZAzvwol6xJxGabe/wpBAdCv47IBBSNY0nLgNpOZVrNZvrePJ+cWIlnOjn+191e3jw2u0W+uLMTGEVUAMupDjAuAGcHNAHAbZgbGB1oAdjiTa3sBIEo8Br0aAEwOU+Vuw5wJwF19Yae3cutDbtFmA7dJC3CrTAIpl+4sHPRoPr/V1CyAAlx/dRfPul8K5k9TeSIkgFoxQH7HJ2gGARB1FI467srFy2DG+z6C6gm0GPsqAOJMUx6lsUCcCDWEE1QQAJiMVlBLEEtnvIPoryk+mAWwCPIRJGOGtvhgADR9uF6fd8eru8D/LlD7/RSANuFG/35qAY2+Q9rrSy1Am3Cjfz+1gEbfIe31PQEp+aU4C7N+ngAAAABJRU5ErkJggg==;" parent="1" vertex="1"><mxGeometry x="192" y="200" width="64" height="40" as="geometry"/></mxCell><mxCell id="133" value="" style="shape=image;verticalLabelPosition=bottom;labelBackgroundColor=#ffffff;verticalAlign=top;aspect=fixed;imageAspect=0;image=data:image/png,iVBORw0KGgoAAAANSUhEUgAAAEAAAAAoCAYAAABOzvzpAAAAAXNSR0IArs4c6QAAAF1JREFUaEPt1QERADAMArHi33SFfOagHBm7+Fv8/hOABsQTQCBeAJ8gAgjEE0AgXgArgAAC8QQQiBfACiCAQDwBBOIFsAIIIBBPAIF4AawAAgjEE0AgXgArgECdwANfiQApEtGAKwAAAABJRU5ErkJggg==;" parent="1" vertex="1"><mxGeometry x="192" y="240" width="64" height="40" as="geometry"/></mxCell><mxCell id="134" value="" style="shape=image;verticalLabelPosition=bottom;labelBackgroundColor=#ffffff;verticalAlign=top;aspect=fixed;imageAspect=0;image=data:image/png,iVBORw0KGgoAAAANSUhEUgAAAEAAAAAoCAYAAABOzvzpAAAAAXNSR0IArs4c6QAAAF1JREFUaEPt1QERADAMArHi33SFfOagHBm7+Fv8/hOABsQTQCBeAJ8gAgjEE0AgXgArgAAC8QQQiBfACiCAQDwBBOIFsAIIIBBPAIF4AawAAgjEE0AgXgArgECdwANfiQApEtGAKwAAAABJRU5ErkJggg==;" parent="1" vertex="1"><mxGeometry x="192" y="280" width="64" height="40" as="geometry"/></mxCell><mxCell id="135" value="" style="shape=image;verticalLabelPosition=bottom;labelBackgroundColor=#ffffff;verticalAlign=top;aspect=fixed;imageAspect=0;image=data:image/png,iVBORw0KGgoAAAANSUhEUgAAAEAAAAAoCAYAAABOzvzpAAAAAXNSR0IArs4c6QAAAF1JREFUaEPt1QERADAMArHi33SFfOagHBm7+Fv8/hOABsQTQCBeAJ8gAgjEE0AgXgArgAAC8QQQiBfACiCAQDwBBOIFsAIIIBBPAIF4AawAAgjEE0AgXgArgECdwANfiQApEtGAKwAAAABJRU5ErkJggg==;" parent="1" vertex="1"><mxGeometry x="192" y="320" width="64" height="40" as="geometry"/></mxCell><mxCell id="136" value="" style="shape=image;verticalLabelPosition=bottom;labelBackgroundColor=#ffffff;verticalAlign=top;aspect=fixed;imageAspect=0;image=data:image/png,iVBORw0KGgoAAAANSUhEUgAAAEAAAAAoCAYAAABOzvzpAAAAAXNSR0IArs4c6QAAAl5JREFUaEPtmLEvBEEUxuf+AAo63RZEo7EoCCoJhe5EKxFEo1RwfwGdjkSikgidguQqJBpOo0FzrUZz9OTb5Ns8Y3dvJDNjz+5Ud7uzO/P95ntv3k5FFbxVCq5flQBKBxScQBkCBTdAmQTLEMhjCITDk5+cV+PhxukiOX25DtdEGPrUd5biR2c2j5RLCN4AQNjs3EYs7PJiL1GYhOTDBd4BQDhAZAE4HB+IQS3fvvyIUpuO8AqASgjANP+g/9tTU62MtdTqyZXVkLAOIMnCUuhoMK96B4PIAWwHi9MqCAOFeMfqdw91RbcW9huRW9A6AgDjXIqTcU8hBECrw+ZMfBICAeB9AHfXPLe6+piPNQdI8feN63h1R8Kp6LcOAqK42q3Hd0UIBID/eM96dTcSjmYz9jlBZwAonDBqtbPYytIB0u5wgQRQP55QW9s9TlbeKwCsIkTLRgf0VfvVx/NrFO//CoCe4ekAXv/3AGQIZDkgLQRwHa5wlfy8hgAGS3MAhSZthXIXcJEA/3wX4CogUcIxgIBCR26PWVWjaSGV1c/6LoDBTOsACpcFURoAKcKmG6wCYJWXRRwVHbdBAtAdIJ9n/QCodEiuAbBo0SEADpteCuM6xKHBAfrncMd8C6AalEJ1CIQjP4YonH0BIA1erkthTjrrY4jC0wBA/Ola+E2/663QWg5ol5GTDkT0Z+Q5AO/xPMBm3MtxvQLQBeuiAEk/DHEl3HohZOIAmR/S4tnk3LDdWL+5780BmJRvcSYgvAIwmZDvPiUA38TzNl7pgLytiO/5lA7wTTxv4xXeAV+c0ck4yAGuOwAAAABJRU5ErkJggg==;" parent="1" vertex="1"><mxGeometry x="192" y="360" width="64" height="40" as="geometry"/></mxCell><mxCell id="137" value="" style="shape=image;verticalLabelPosition=bottom;labelBackgroundColor=#ffffff;verticalAlign=top;aspect=fixed;imageAspect=0;image=data:image/png,iVBORw0KGgoAAAANSUhEUgAAAEAAAAAoCAYAAABOzvzpAAAAAXNSR0IArs4c6QAAAqtJREFUaEPtmE8oREEcx2fvbOHCcS/WxcVyIZTa4uBGTsqmSEouXFz2IsVFSqJEKSVuDtSWQrmwLi7WZY9cOCx3+r76bT+z896bjZnX232/y+y+fzO/z+87v/nNxESdW6zO/RcRgEgBFgmkuvq/dbrLP95aU6a1juB8T2LU8b+lI+HJ4fJiS9iCYAWA7DwcdLPhkQXnli0I1gHcF8/FQ/7GFUB3akAAQs0DgKMwwJB/RwBqWQFIgJC3ahqQ/Gs6B3AAc2MbYudsSVBbNwB0aoHQJkFe7NBaXk0NQHA4ANU3dSDqPPPvyyAGy9dyPggqhNyKoffnolMkoYVhyYSZrA2MAUAEaeA6kfB6hr5lYloYA8Cl/BcAHGIoAMBZ3U3Pfm97BZvpuxdXXib2B/+uAHn0gLE3MShmTq7Laz+WOzgf72xUOju+mxf0jgmneadWAfCOOYCGZKtz66vw5rQAkFufEunlQ+O7QqsAqO6nVqUCch4gQg+AcgHkDMM0ICOJy3MAkScLNQA4T0kOiY0gkHOJlPehCJyHhTIHwPnT2VQ5kqWnT+GV3VWZEPDwDgCQkkzAMJIDVACqrQWwQiAfkK2kk2I1V/gFRPVNXjXqnCsYAyBnfPrPlz7uIO5z1dBqQLki0xYXB68l5zOZxayS5/zkkHN9++hK4Dfag82s5zQyBkBOZqoR5477ypebkmvlkyH+LAEgBSCqbcnmis+pnMdDgQBAx7waVJ0G04aHeyKfFvPDU64AeY9BQF4LHw4ctDCd0tmIArhT1ZwI03uq3SQB4EnRL6/oJE0rADBQUgG2uG4D47DwDj0bulVAVgAvhLyiQvsGvI+iSSeCfirwu29NARiIn0MmT37cQBgH4BeBoO9HAIKOQND9RwoIOgJB9x8pIOgIBN1/3SvgB6OxojiXPrA/AAAAAElFTkSuQmCC;" parent="1" vertex="1"><mxGeometry x="256" width="64" height="40" as="geometry"/></mxCell><mxCell id="138" value="" style="shape=image;verticalLabelPosition=bottom;labelBackgroundColor=#ffffff;verticalAlign=top;aspect=fixed;imageAspect=0;image=data:image/png,iVBORw0KGgoAAAANSUhEUgAAAEAAAAAoCAYAAABOzvzpAAAAAXNSR0IArs4c6QAAAsNJREFUaEPtmD9IHEEYxcfeCDFNLK/x0tjktDGoIAhJYadYBXIIBglImqSxsRFBGxFCSCAoBATRzkLhIJAEbPTS2HhpLE2TFGofeQPv+Bxn/3EzA7vuNLt3Ozsz7zdvvm92utQ9L133XL8qAYR0QO3pyP80/TV//Qw2McE6gvihyqTW/+hJJZbD4cGGCgUhCABTPARGlecvFvSjUBCCAzg+31cnzR+RAAZrowoQCg8AQlEAw7wvARTZAQiAsLdtGdD+hY4BEsD81Jr6uPdO8VoYADLfI51lSYGMjgyCZltp9hFZ6jjPAhiwmco6BeAzNXoDYMv13AhFbYb+np3rTRKuKEiZLL4ygzcAWWyYtq6PvYFzABCTds+fVjjr+dgeewEghcXB+DLcf4fB7NHvW//5EC07CALg88yYmtv53s79SHcQ3zPwwGqC6U9NxXcKBUCqlQC6q4/1o+vWH30FgMbqKzXxfsv7V2FwB2D2uf+3uYDiAUIC4FJy7QivADho2BkFy4CFFjfXAGaeBQBkWZyoquVGS7siLrbIfUNS+vQGAAPcfV1Tl6dXCoGNECioUos/FKF4vIe6+F3v61GbF5e6ifrbJWv8ePNyXP//4es3hXtcN9eXIpeSFwAUzxESQpa0h+UhwcE9dABmta/ae6c5m3hUCgqA1sTsSwBZxKMuMgTigSzSAbQ5nxPIReufhoMrStLmybkDAIARHAPgTDLny9RnCpTQmA1sAJJigHwnKWh6AxAVyOTgGtvP2j8fVlfaJ0M2AbnKAmaEtp0G84NHijVPi5Psm3VZ2eo7d4DZie1TOO5UGO/7/Pw1x+cdADqkI+gEfOba1qbt+DxpDXfqgmAA5GYoShQApKnXqWj5fhAA0gW4jwPAwfmeefYTDIDLWXPZVgnAJc08tlU6II+z5nLMpQNc0sxjW6UD8jhrLsd8A2r4rTjbta5NAAAAAElFTkSuQmCC;" parent="1" vertex="1"><mxGeometry x="256" y="40" width="64" height="40" as="geometry"/></mxCell><mxCell id="139" value="" style="shape=image;verticalLabelPosition=bottom;labelBackgroundColor=#ffffff;verticalAlign=top;aspect=fixed;imageAspect=0;image=data:image/png,iVBORw0KGgoAAAANSUhEUgAAAEAAAAAoCAYAAABOzvzpAAAAAXNSR0IArs4c6QAAAF1JREFUaEPt1QERADAMArHi33SFfOagHBm7+Fv8/hOABsQTQCBeAJ8gAgjEE0AgXgArgAAC8QQQiBfACiCAQDwBBOIFsAIIIBBPAIF4AawAAgjEE0AgXgArgECdwANfiQApEtGAKwAAAABJRU5ErkJggg==;" parent="1" vertex="1"><mxGeometry x="256" y="80" width="64" height="40" as="geometry"/></mxCell><mxCell id="140" value="" style="shape=image;verticalLabelPosition=bottom;labelBackgroundColor=#ffffff;verticalAlign=top;aspect=fixed;imageAspect=0;image=data:image/png,iVBORw0KGgoAAAANSUhEUgAAAEAAAAAoCAYAAABOzvzpAAAAAXNSR0IArs4c6QAAAF1JREFUaEPt1QERADAMArHi33SFfOagHBm7+Fv8/hOABsQTQCBeAJ8gAgjEE0AgXgArgAAC8QQQiBfACiCAQDwBBOIFsAIIIBBPAIF4AawAAgjEE0AgXgArgECdwANfiQApEtGAKwAAAABJRU5ErkJggg==;" parent="1" vertex="1"><mxGeometry x="256" y="120" width="64" height="40" as="geometry"/></mxCell><mxCell id="141" value="" style="shape=image;verticalLabelPosition=bottom;labelBackgroundColor=#ffffff;verticalAlign=top;aspect=fixed;imageAspect=0;image=data:image/png,iVBORw0KGgoAAAANSUhEUgAAAEAAAAAoCAYAAABOzvzpAAAAAXNSR0IArs4c6QAAAF1JREFUaEPt1QERADAMArHi33SFfOagHBm7+Fv8/hOABsQTQCBeAJ8gAgjEE0AgXgArgAAC8QQQiBfACiCAQDwBBOIFsAIIIBBPAIF4AawAAgjEE0AgXgArgECdwANfiQApEtGAKwAAAABJRU5ErkJggg==;" parent="1" vertex="1"><mxGeometry x="256" y="160" width="64" height="40" as="geometry"/></mxCell><mxCell id="142" value="" style="shape=image;verticalLabelPosition=bottom;labelBackgroundColor=#ffffff;verticalAlign=top;aspect=fixed;imageAspect=0;image=data:image/png,iVBORw0KGgoAAAANSUhEUgAAAEAAAAAoCAYAAABOzvzpAAAAAXNSR0IArs4c6QAAAF1JREFUaEPt1QERADAMArHi33SFfOagHBm7+Fv8/hOABsQTQCBeAJ8gAgjEE0AgXgArgAAC8QQQiBfACiCAQDwBBOIFsAIIIBBPAIF4AawAAgjEE0AgXgArgECdwANfiQApEtGAKwAAAABJRU5ErkJggg==;" parent="1" vertex="1"><mxGeometry x="256" y="280" width="64" height="40" as="geometry"/></mxCell><mxCell id="143" value="" style="shape=image;verticalLabelPosition=bottom;labelBackgroundColor=#ffffff;verticalAlign=top;aspect=fixed;imageAspect=0;image=data:image/png,iVBORw0KGgoAAAANSUhEUgAAAEAAAAAoCAYAAABOzvzpAAAAAXNSR0IArs4c6QAAAF1JREFUaEPt1QERADAMArHi33SFfOagHBm7+Fv8/hOABsQTQCBeAJ8gAgjEE0AgXgArgAAC8QQQiBfACiCAQDwBBOIFsAIIIBBPAIF4AawAAgjEE0AgXgArgECdwANfiQApEtGAKwAAAABJRU5ErkJggg==;" parent="1" vertex="1"><mxGeometry x="256" y="240" width="64" height="40" as="geometry"/></mxCell><mxCell id="144" value="" style="shape=image;verticalLabelPosition=bottom;labelBackgroundColor=#ffffff;verticalAlign=top;aspect=fixed;imageAspect=0;image=data:image/png,iVBORw0KGgoAAAANSUhEUgAAAEAAAAAoCAYAAABOzvzpAAAAAXNSR0IArs4c6QAAAF1JREFUaEPt1QERADAMArHi33SFfOagHBm7+Fv8/hOABsQTQCBeAJ8gAgjEE0AgXgArgAAC8QQQiBfACiCAQDwBBOIFsAIIIBBPAIF4AawAAgjEE0AgXgArgECdwANfiQApEtGAKwAAAABJRU5ErkJggg==;" parent="1" vertex="1"><mxGeometry x="256" y="200" width="64" height="40" as="geometry"/></mxCell><mxCell id="145" value="" style="shape=image;verticalLabelPosition=bottom;labelBackgroundColor=#ffffff;verticalAlign=top;aspect=fixed;imageAspect=0;image=data:image/png,iVBORw0KGgoAAAANSUhEUgAAAEAAAAAoCAYAAABOzvzpAAAAAXNSR0IArs4c6QAAAF1JREFUaEPt1QERADAMArHi33SFfOagHBm7+Fv8/hOABsQTQCBeAJ8gAgjEE0AgXgArgAAC8QQQiBfACiCAQDwBBOIFsAIIIBBPAIF4AawAAgjEE0AgXgArgECdwANfiQApEtGAKwAAAABJRU5ErkJggg==;" parent="1" vertex="1"><mxGeometry x="256" y="320" width="64" height="40" as="geometry"/></mxCell><mxCell id="146" value="" style="shape=image;verticalLabelPosition=bottom;labelBackgroundColor=#ffffff;verticalAlign=top;aspect=fixed;imageAspect=0;image=data:image/png,iVBORw0KGgoAAAANSUhEUgAAAEAAAAAoCAYAAABOzvzpAAAAAXNSR0IArs4c6QAAAkNJREFUaEPtlz8vBEEYxuc+AAWdbgui0VgUBJWEQneilQiiUSq4T0CnI5GoJEKnILkKiYbTaNBcq9EcPXkmeTbvjd29ODPr1s7b7OZmZm/e3zzvnympglup4P4rD8AroOAEfAgUXAA+CfoQ8CFQcAI+BAouAF8FfAhkGQLh8OQn/6/2cNMR8DPbBJyfnduIeF9e7KkkCFmCyhwAHAcIPJPsdC2Mhhb2a9G7C9VYByBPL87B0WBe9Q4GGsDh+ICesnz7oqo7S/p9ZvPo2zIqJ0017YayVQB0/r52rUbCKb0nvMMqlTP9fHuqNwHoHupSjcf3CAIAEAaBAADWrYw11OrJVWLotAPBGgDGOE7JBLBe3tVOS6MCAAAGqcNxUwFQzF39XOGZKwDmaVAB/J0A+sr96uP5tQkAQgNhAZCABwDSbOaCP1dAGoDq8YTa2u7RAGw6LWFmAkDmAFMBcSFABeQaAB1lMpQ9AMZkDkD8HyxOqyAMdA4AAIDB78wBuVEAnSMA03FZBTiHSZNJUAJgz5ArAGnlSAKQ1QJrJAD2B/8KAJyHsREigDgFEECuQoBdXpwC4DzLWVwrjBwAQ6MjO0R8E+aqElitAjytpBCg4xIAHecaADDNJQTrAJKcxwmat0HMjQNg3hFQGTq+E4QzaId5WiYIs5vjuAQg5c8cINtjzO3YuwAdSrsNSjhJQNIqCMdslkRrIdBq46Y6XCW1VvswxzMDwBBxcYo/dVrOzxTAbzbqaq0H4IpsXr7rFZCXk3K1zy/J65A4Rmuq7QAAAABJRU5ErkJggg==;" parent="1" vertex="1"><mxGeometry x="256" y="360" width="64" height="40" as="geometry"/></mxCell><mxCell id="147" value="" style="shape=image;verticalLabelPosition=bottom;labelBackgroundColor=#ffffff;verticalAlign=top;aspect=fixed;imageAspect=0;image=data:image/png,iVBORw0KGgoAAAANSUhEUgAAAEAAAAAoCAYAAABOzvzpAAAAAXNSR0IArs4c6QAAAF1JREFUaEPt1QERADAMArHi33SFfOagHBm7+Fv8/hOABsQTQCBeAJ8gAgjEE0AgXgArgAAC8QQQiBfACiCAQDwBBOIFsAIIIBBPAIF4AawAAgjEE0AgXgArgECdwANfiQApEtGAKwAAAABJRU5ErkJggg==;" parent="1" vertex="1"><mxGeometry x="320" width="64" height="40" as="geometry"/></mxCell><mxCell id="148" value="" style="shape=image;verticalLabelPosition=bottom;labelBackgroundColor=#ffffff;verticalAlign=top;aspect=fixed;imageAspect=0;image=data:image/png,iVBORw0KGgoAAAANSUhEUgAAAEAAAAAoCAYAAABOzvzpAAAAAXNSR0IArs4c6QAAAqFJREFUaEPtmDFIHEEUhud6FdQmltd4NjY50yhGEARTpIukCuQIREQQm9jYXBMEbUQQiSAGhICYLkUCB4EYSJOcjY1nY6mNKdQ+4R/4j+e4tzfL+ia5u51m7nbf7L7/2zfvvd2c6fCR63D9JgOQRUCHE8i2QMgAKD4c/+Nzv+rR92APJtiNIP5R/qnV3z+Uj+Xw5fOGCQUhCABXPAQ2GtNPFuypUBCCA/h59sn8qh42BDBSfGwAoe0BQCgGYLi/MwDtHAFIgAjvqG3A8G/rHCABzD1bM1sf3xjObQNA1nuUsyQlkNmRSdC9lk8fkcTm3qsAHHZLWVoAmqVRDUBUrWcj1KgZujw5s00SZgyUTA6tyqAGIEkY+tpq9Ab3DgBifHt+X+G002iPVQBIYRIGSx+y/c7oYEP9r36c1s9piJY3DgJg+/mEeb3/7ZZgAOgZ7rbHugoP7HxTu7DzzLuqqay+NFNL79VfioICYNvLWUIgHYrH/5YHwPBHBGDIKIiKCtjgyXMQAK+jsR3UIgBOc59jTxMCxeWL8d8EIF6O5amCeVup2S0Rl2Rlz+BTOlUAwMGD2WLd/6vjayMTm0/2BzyCQ+SUBnrM7vmVXVpaLEdeYv7FpD2+uffV4Dfm3fVybB4JBsBHtLRBgkQ+4FZhBOCpDhT67lwuSjyM/hkA6aEsecz8zPbSTkaNe15GAMOcawnkvPbbwsGM4dM4qUWAm8yiIqDyYax+uLewUv8wEmVLAM1ygFzrkzRVAMAJmaiiPoay35cOux9L3TdCH0FJt5oaADpCEIQgX3DinIU9bDVEy/sGASD7gGaCACyJfdIn7toHAcCbNhPvbh0f+/8eQFoHtderR4C2gLTXzwCkJdjq67MIaPUnmNb/LALSEmz19X8BXHOJOFAQcewAAAAASUVORK5CYII=;" parent="1" vertex="1"><mxGeometry x="320" y="40" width="64" height="40" as="geometry"/></mxCell><mxCell id="149" value="" style="shape=image;verticalLabelPosition=bottom;labelBackgroundColor=#ffffff;verticalAlign=top;aspect=fixed;imageAspect=0;image=data:image/png,iVBORw0KGgoAAAANSUhEUgAAAEAAAAAoCAYAAABOzvzpAAAAAXNSR0IArs4c6QAAAF1JREFUaEPt1QERADAMArHi33SFfOagHBm7+Fv8/hOABsQTQCBeAJ8gAgjEE0AgXgArgAAC8QQQiBfACiCAQDwBBOIFsAIIIBBPAIF4AawAAgjEE0AgXgArgECdwANfiQApEtGAKwAAAABJRU5ErkJggg==;" parent="1" vertex="1"><mxGeometry x="320" y="80" width="64" height="40" as="geometry"/></mxCell><mxCell id="150" value="" style="shape=image;verticalLabelPosition=bottom;labelBackgroundColor=#ffffff;verticalAlign=top;aspect=fixed;imageAspect=0;image=data:image/png,iVBORw0KGgoAAAANSUhEUgAAAEAAAAAoCAYAAABOzvzpAAAAAXNSR0IArs4c6QAAAF1JREFUaEPt1QERADAMArHi33SFfOagHBm7+Fv8/hOABsQTQCBeAJ8gAgjEE0AgXgArgAAC8QQQiBfACiCAQDwBBOIFsAIIIBBPAIF4AawAAgjEE0AgXgArgECdwANfiQApEtGAKwAAAABJRU5ErkJggg==;" parent="1" vertex="1"><mxGeometry x="320" y="120" width="64" height="40" as="geometry"/></mxCell><mxCell id="151" value="" style="shape=image;verticalLabelPosition=bottom;labelBackgroundColor=#ffffff;verticalAlign=top;aspect=fixed;imageAspect=0;image=data:image/png,iVBORw0KGgoAAAANSUhEUgAAAEAAAAAoCAYAAABOzvzpAAAAAXNSR0IArs4c6QAAAF1JREFUaEPt1QERADAMArHi33SFfOagHBm7+Fv8/hOABsQTQCBeAJ8gAgjEE0AgXgArgAAC8QQQiBfACiCAQDwBBOIFsAIIIBBPAIF4AawAAgjEE0AgXgArgECdwANfiQApEtGAKwAAAABJRU5ErkJggg==;" parent="1" vertex="1"><mxGeometry x="320" y="160" width="64" height="40" as="geometry"/></mxCell><mxCell id="152" value="" style="shape=image;verticalLabelPosition=bottom;labelBackgroundColor=#ffffff;verticalAlign=top;aspect=fixed;imageAspect=0;image=data:image/png,iVBORw0KGgoAAAANSUhEUgAAAEAAAAAoCAYAAABOzvzpAAAAAXNSR0IArs4c6QAAAF1JREFUaEPt1QERADAMArHi33SFfOagHBm7+Fv8/hOABsQTQCBeAJ8gAgjEE0AgXgArgAAC8QQQiBfACiCAQDwBBOIFsAIIIBBPAIF4AawAAgjEE0AgXgArgECdwANfiQApEtGAKwAAAABJRU5ErkJggg==;" parent="1" vertex="1"><mxGeometry x="320" y="200" width="64" height="40" as="geometry"/></mxCell><mxCell id="153" value="" style="shape=image;verticalLabelPosition=bottom;labelBackgroundColor=#ffffff;verticalAlign=top;aspect=fixed;imageAspect=0;image=data:image/png,iVBORw0KGgoAAAANSUhEUgAAAEAAAAAoCAYAAABOzvzpAAAAAXNSR0IArs4c6QAAAF1JREFUaEPt1QERADAMArHi33SFfOagHBm7+Fv8/hOABsQTQCBeAJ8gAgjEE0AgXgArgAAC8QQQiBfACiCAQDwBBOIFsAIIIBBPAIF4AawAAgjEE0AgXgArgECdwANfiQApEtGAKwAAAABJRU5ErkJggg==;" parent="1" vertex="1"><mxGeometry x="320" y="240" width="64" height="40" as="geometry"/></mxCell><mxCell id="154" value="" style="shape=image;verticalLabelPosition=bottom;labelBackgroundColor=#ffffff;verticalAlign=top;aspect=fixed;imageAspect=0;image=data:image/png,iVBORw0KGgoAAAANSUhEUgAAAEAAAAAoCAYAAABOzvzpAAAAAXNSR0IArs4c6QAAAF1JREFUaEPt1QERADAMArHi33SFfOagHBm7+Fv8/hOABsQTQCBeAJ8gAgjEE0AgXgArgAAC8QQQiBfACiCAQDwBBOIFsAIIIBBPAIF4AawAAgjEE0AgXgArgECdwANfiQApEtGAKwAAAABJRU5ErkJggg==;" parent="1" vertex="1"><mxGeometry x="320" y="280" width="64" height="40" as="geometry"/></mxCell><mxCell id="155" value="" style="shape=image;verticalLabelPosition=bottom;labelBackgroundColor=#ffffff;verticalAlign=top;aspect=fixed;imageAspect=0;image=data:image/png,iVBORw0KGgoAAAANSUhEUgAAAEAAAAAoCAYAAABOzvzpAAAAAXNSR0IArs4c6QAAAF1JREFUaEPt1QERADAMArHi33SFfOagHBm7+Fv8/hOABsQTQCBeAJ8gAgjEE0AgXgArgAAC8QQQiBfACiCAQDwBBOIFsAIIIBBPAIF4AawAAgjEE0AgXgArgECdwANfiQApEtGAKwAAAABJRU5ErkJggg==;" parent="1" vertex="1"><mxGeometry x="320" y="320" width="64" height="40" as="geometry"/></mxCell><mxCell id="156" value="" style="shape=image;verticalLabelPosition=bottom;labelBackgroundColor=#ffffff;verticalAlign=top;aspect=fixed;imageAspect=0;image=data:image/png,iVBORw0KGgoAAAANSUhEUgAAAEAAAAAoCAYAAABOzvzpAAAAAXNSR0IArs4c6QAAAllJREFUaEPtmLEvBEEUxuf+AFfQ6bYgGo1DQVBJKDRyopUIiUap4P4COh2JRCWR6BQkVyHRcBLRoLlWozl68k3ybZ7J7ubI282unWlWbmbn5vu97715p2JKPiol1288AO+AkhPwKVByA/gi6FPAp0DJCfgUKLkB/C2QyxSojUx90Zmth5tUz5jq5m56dSMMa5q7K+Grs1vHJk0ImQGAsLn5zVDY5cV+pDAJKQsXZA4AwgECz78MbTeoA4iKoBQ6FiyYvqHAAjiaGLRTq7evhraH5fF5dbjHzi0dtCwwjMXqo1k/vVJNCVUAFH/fujajtWl7aPyN0Wic2ef7c/sHAAjtPH2EEOIA4L218U5+ATDHEVkXwEZ9z4qWgw6QkYYLJABEH465a5+HT+yhmQZqDnABuPlNB/BzAuivD5jPlzdrdQkAaQGQgAcA2sJ5jtQAyBRIckASgObJpNne6bUANKMug5MJAFkDXAfEpYAtjEUGQKF0guwBMCdrAOx/uDxjgloQWwMK4wCKIwBXuLwFuIZFM6oIsmcoFICkBkcCkLcF3pEA2B/8KwAQj8FGiACiHEAAvAYJVdsJqkWQXV6UAyCe11lUK4wagIFOD50gu0P0BYSANbntBNEHuNFyQVC4BEDhXAuBHLI9xt657wRxyLiB6Lu/BrE2CoD7G0G6QLshUksBHIwuiIJA+7tzEgDtL9cgFegs7fzH96gCIIQ4F0iHxAGJezcN8akAiBPguiPN9jbpGnbn1B2Q9OXd/EvsN4fXWJspAI0Da+/hAWgTLdp+3gFFi5j2eb8BDIykOGd2ufQAAAAASUVORK5CYII=;" parent="1" vertex="1"><mxGeometry x="320" y="360" width="64" height="40" as="geometry"/></mxCell><mxCell id="157" value="" style="shape=image;verticalLabelPosition=bottom;labelBackgroundColor=#ffffff;verticalAlign=top;aspect=fixed;imageAspect=0;image=data:image/png,iVBORw0KGgoAAAANSUhEUgAAAEAAAAAoCAYAAABOzvzpAAAAAXNSR0IArs4c6QAAAF1JREFUaEPt1QERADAMArHi33SFfOagHBm7+Fv8/hOABsQTQCBeAJ8gAgjEE0AgXgArgAAC8QQQiBfACiCAQDwBBOIFsAIIIBBPAIF4AawAAgjEE0AgXgArgECdwANfiQApEtGAKwAAAABJRU5ErkJggg==;" parent="1" vertex="1"><mxGeometry x="384" width="64" height="40" as="geometry"/></mxCell><mxCell id="158" value="" style="shape=image;verticalLabelPosition=bottom;labelBackgroundColor=#ffffff;verticalAlign=top;aspect=fixed;imageAspect=0;image=data:image/png,iVBORw0KGgoAAAANSUhEUgAAAEAAAAAoCAYAAABOzvzpAAAAAXNSR0IArs4c6QAAAF1JREFUaEPt1QERADAMArHi33SFfOagHBm7+Fv8/hOABsQTQCBeAJ8gAgjEE0AgXgArgAAC8QQQiBfACiCAQDwBBOIFsAIIIBBPAIF4AawAAgjEE0AgXgArgECdwANfiQApEtGAKwAAAABJRU5ErkJggg==;" parent="1" vertex="1"><mxGeometry x="384" y="40" width="64" height="40" as="geometry"/></mxCell><mxCell id="159" value="" style="shape=image;verticalLabelPosition=bottom;labelBackgroundColor=#ffffff;verticalAlign=top;aspect=fixed;imageAspect=0;image=data:image/png,iVBORw0KGgoAAAANSUhEUgAAAEAAAAAoCAYAAABOzvzpAAAAAXNSR0IArs4c6QAAAF1JREFUaEPt1QERADAMArHi33SFfOagHBm7+Fv8/hOABsQTQCBeAJ8gAgjEE0AgXgArgAAC8QQQiBfACiCAQDwBBOIFsAIIIBBPAIF4AawAAgjEE0AgXgArgECdwANfiQApEtGAKwAAAABJRU5ErkJggg==;" parent="1" vertex="1"><mxGeometry x="384" y="80" width="64" height="40" as="geometry"/></mxCell><mxCell id="160" value="" style="shape=image;verticalLabelPosition=bottom;labelBackgroundColor=#ffffff;verticalAlign=top;aspect=fixed;imageAspect=0;image=data:image/png,iVBORw0KGgoAAAANSUhEUgAAAEAAAAAoCAYAAABOzvzpAAAAAXNSR0IArs4c6QAAAF1JREFUaEPt1QERADAMArHi33SFfOagHBm7+Fv8/hOABsQTQCBeAJ8gAgjEE0AgXgArgAAC8QQQiBfACiCAQDwBBOIFsAIIIBBPAIF4AawAAgjEE0AgXgArgECdwANfiQApEtGAKwAAAABJRU5ErkJggg==;" parent="1" vertex="1"><mxGeometry x="384" y="120" width="64" height="40" as="geometry"/></mxCell><mxCell id="161" value="" style="shape=image;verticalLabelPosition=bottom;labelBackgroundColor=#ffffff;verticalAlign=top;aspect=fixed;imageAspect=0;image=data:image/png,iVBORw0KGgoAAAANSUhEUgAAAEAAAAAoCAYAAABOzvzpAAAAAXNSR0IArs4c6QAAAF1JREFUaEPt1QERADAMArHi33SFfOagHBm7+Fv8/hOABsQTQCBeAJ8gAgjEE0AgXgArgAAC8QQQiBfACiCAQDwBBOIFsAIIIBBPAIF4AawAAgjEE0AgXgArgECdwANfiQApEtGAKwAAAABJRU5ErkJggg==;" parent="1" vertex="1"><mxGeometry x="384" y="160" width="64" height="40" as="geometry"/></mxCell><mxCell id="162" value="" style="shape=image;verticalLabelPosition=bottom;labelBackgroundColor=#ffffff;verticalAlign=top;aspect=fixed;imageAspect=0;image=data:image/png,iVBORw0KGgoAAAANSUhEUgAAAEAAAAAoCAYAAABOzvzpAAAAAXNSR0IArs4c6QAAAF1JREFUaEPt1QERADAMArHi33SFfOagHBm7+Fv8/hOABsQTQCBeAJ8gAgjEE0AgXgArgAAC8QQQiBfACiCAQDwBBOIFsAIIIBBPAIF4AawAAgjEE0AgXgArgECdwANfiQApEtGAKwAAAABJRU5ErkJggg==;" parent="1" vertex="1"><mxGeometry x="384" y="200" width="64" height="40" as="geometry"/></mxCell><mxCell id="163" value="" style="shape=image;verticalLabelPosition=bottom;labelBackgroundColor=#ffffff;verticalAlign=top;aspect=fixed;imageAspect=0;image=data:image/png,iVBORw0KGgoAAAANSUhEUgAAAEAAAAAoCAYAAABOzvzpAAAAAXNSR0IArs4c6QAAAF1JREFUaEPt1QERADAMArHi33SFfOagHBm7+Fv8/hOABsQTQCBeAJ8gAgjEE0AgXgArgAAC8QQQiBfACiCAQDwBBOIFsAIIIBBPAIF4AawAAgjEE0AgXgArgECdwANfiQApEtGAKwAAAABJRU5ErkJggg==;" parent="1" vertex="1"><mxGeometry x="384" y="240" width="64" height="40" as="geometry"/></mxCell><mxCell id="164" value="" style="shape=image;verticalLabelPosition=bottom;labelBackgroundColor=#ffffff;verticalAlign=top;aspect=fixed;imageAspect=0;image=data:image/png,iVBORw0KGgoAAAANSUhEUgAAAEAAAAAoCAYAAABOzvzpAAAAAXNSR0IArs4c6QAAAF1JREFUaEPt1QERADAMArHi33SFfOagHBm7+Fv8/hOABsQTQCBeAJ8gAgjEE0AgXgArgAAC8QQQiBfACiCAQDwBBOIFsAIIIBBPAIF4AawAAgjEE0AgXgArgECdwANfiQApEtGAKwAAAABJRU5ErkJggg==;" parent="1" vertex="1"><mxGeometry x="384" y="280" width="64" height="40" as="geometry"/></mxCell><mxCell id="165" value="" style="shape=image;verticalLabelPosition=bottom;labelBackgroundColor=#ffffff;verticalAlign=top;aspect=fixed;imageAspect=0;image=data:image/png,iVBORw0KGgoAAAANSUhEUgAAAEAAAAAoCAYAAABOzvzpAAAAAXNSR0IArs4c6QAAAF1JREFUaEPt1QERADAMArHi33SFfOagHBm7+Fv8/hOABsQTQCBeAJ8gAgjEE0AgXgArgAAC8QQQiBfACiCAQDwBBOIFsAIIIBBPAIF4AawAAgjEE0AgXgArgECdwANfiQApEtGAKwAAAABJRU5ErkJggg==;" parent="1" vertex="1"><mxGeometry x="384" y="320" width="64" height="40" as="geometry"/></mxCell><mxCell id="166" value="" style="shape=image;verticalLabelPosition=bottom;labelBackgroundColor=#ffffff;verticalAlign=top;aspect=fixed;imageAspect=0;image=data:image/png,iVBORw0KGgoAAAANSUhEUgAAAEAAAAAoCAYAAABOzvzpAAAAAXNSR0IArs4c6QAAAlJJREFUaEPtmL1KA0EUhScPYArt7FIoNjZGLRS1EkxhIxFbQVRsLCwsNE+gnZ2CYCWIdiIKqVSw0Qh2YpMnsPEFlLNwws24P1mYGzbZmSayO+7O+e65985sweR8FHKu33gA3gE5J+BTIOcG8EXQp4BPgZwTyGQKlCfmfhGXxvuz+vrUX5DWYBBfP1oP/m1x/0IdQtcBMLpREZb3u+GCrgKAuKXKbssUD/cn/yKMOdfb5WDO6mmjvxxAABAOEPhNO1zXBRUH2Da2RU6Vls3QWCkAcD4zajZevozMe16Tblkpfpitq0fnjnAOgOLfGk9msjwfaMffGLXaTfD7/dlsA4BrhIDCZwPA/M3pn+wDkBa3AexUjwPRctABxfGBIN/hAhsA5sAxr81b59HHWpw6wAZgW58O4HUCGK6OmMreXQsAXQNoEK7ZDVQByBSIc0AYgPrlrDk4HFSLPIPgAaRtQ3Hz42qALIKdpEBfOIBCmQqyreFeVBHEvZ4GQHEEYAu3HYAWeLa2YErlUlsX0Kz+qjUgKa3kPoAVHy6JaoOud39yfSpFMA0AuV/IBQBEH4NbYe4SpQMIkCkggbp2g3MHcJ8f5gKI58bGPgyhBmBgvy/PBYSA+5k/C6ANhkVNwqBwCYDiCUDOx/MweuYswAWHOQDRt78HYJ4NAIchDHQHPq8nzgJYNF0QBSDsurQ/xUsAWuLxDqc1gOLivgdIh7AeJHUN14VPrQ0mCbHdoRnZpLWobIQ6eWnSR9FOnuFyjkoKuFyg9rM8AG3CWX++d0DWI6S9vj/NRbc4x+PkMAAAAABJRU5ErkJggg==;" parent="1" vertex="1"><mxGeometry x="384" y="360" width="64" height="40" as="geometry"/></mxCell><mxCell id="167" value="" style="shape=image;verticalLabelPosition=bottom;labelBackgroundColor=#ffffff;verticalAlign=top;aspect=fixed;imageAspect=0;image=data:image/png,iVBORw0KGgoAAAANSUhEUgAAAEAAAAAoCAYAAABOzvzpAAAAAXNSR0IArs4c6QAAAkVJREFUaEPtl7EvBEEUxud6FDTabdBoLAqCSkKhI1qJIBqlgvsL6HQkEpVE6BQkVyHRcBoNmms1mqMn3yTf5d1kZrcwu9nNzjR7t3Mz+95vvu+9vZqq+KhVPH8VAAQFVJxAsEDFBRCKYLBAsEDFCQQLVFwAoQsECwQLVJxAbhaIx2Z+ybr58pDbc9PON5dAkPzC4k4nltubI5UEQcLCoiyB5QoAiQMErknjcivuml45bna++4bhFYB5cmaSE9GSGhiJNIDTqaHO9Prjh2ocrOnv87tnVjZUUJp60iRvznsDwOSfm/dqPJ7Vz8FnjHr9Sl+/3lpdAPpGe/X99uu3IgQAIAwGi3sAgPUbk221eXHnzRZeANDjOB0mLUkTAO9RAQDQMzyoft4/FWSOxG0KgHKeWtcK11IAkArYXj7Upy5HGgDaA6oAUOwBAHL4qgWZKMBlAZsCeE8qQAJonE+rvf1+DcBX0hJkJgD4AIJgAXPVACR/sjqnojjSFiAAWARztEDhASBx2eJk7zeLoDwFFk7WALNDsHWWAoCrDeH0MdgGZbfgmrQiWGgA7PE2AEieRYynabZL2IUAbG0wKxt4qwEM0KUAJu56E0QNwECPtw3sj+G7GHoF4EoeQZv/BfBbJi3XAYCsAZhDOySAQr4HIEi8DDFIE4TZwzlvArAlLwFgH6wp3JsgE0r6LyDhuIC4FGS776sgerFAWuCmOnz7OO35SfO5AKBFGIiv0/tP4lybGwAfwWaxRwCQBdUy7RkUUKbTyiLWP+tkXDgl2LbaAAAAAElFTkSuQmCC;" parent="1" vertex="1"><mxGeometry x="448" y="360" width="64" height="40" as="geometry"/></mxCell><mxCell id="168" value="" style="shape=image;verticalLabelPosition=bottom;labelBackgroundColor=#ffffff;verticalAlign=top;aspect=fixed;imageAspect=0;image=data:image/png,iVBORw0KGgoAAAANSUhEUgAAAEAAAAAoCAYAAABOzvzpAAAAAXNSR0IArs4c6QAAAF1JREFUaEPt1QERADAMArHi33SFfOagHBm7+Fv8/hOABsQTQCBeAJ8gAgjEE0AgXgArgAAC8QQQiBfACiCAQDwBBOIFsAIIIBBPAIF4AawAAgjEE0AgXgArgECdwANfiQApEtGAKwAAAABJRU5ErkJggg==;" parent="1" vertex="1"><mxGeometry x="448" width="64" height="40" as="geometry"/></mxCell><mxCell id="169" value="" style="shape=image;verticalLabelPosition=bottom;labelBackgroundColor=#ffffff;verticalAlign=top;aspect=fixed;imageAspect=0;image=data:image/png,iVBORw0KGgoAAAANSUhEUgAAAEAAAAAoCAYAAABOzvzpAAAAAXNSR0IArs4c6QAAAF1JREFUaEPt1QERADAMArHi33SFfOagHBm7+Fv8/hOABsQTQCBeAJ8gAgjEE0AgXgArgAAC8QQQiBfACiCAQDwBBOIFsAIIIBBPAIF4AawAAgjEE0AgXgArgECdwANfiQApEtGAKwAAAABJRU5ErkJggg==;" parent="1" vertex="1"><mxGeometry x="448" y="40" width="64" height="40" as="geometry"/></mxCell><mxCell id="170" value="" style="shape=image;verticalLabelPosition=bottom;labelBackgroundColor=#ffffff;verticalAlign=top;aspect=fixed;imageAspect=0;image=data:image/png,iVBORw0KGgoAAAANSUhEUgAAAEAAAAAoCAYAAABOzvzpAAAAAXNSR0IArs4c6QAAAF1JREFUaEPt1QERADAMArHi33SFfOagHBm7+Fv8/hOABsQTQCBeAJ8gAgjEE0AgXgArgAAC8QQQiBfACiCAQDwBBOIFsAIIIBBPAIF4AawAAgjEE0AgXgArgECdwANfiQApEtGAKwAAAABJRU5ErkJggg==;" parent="1" vertex="1"><mxGeometry x="448" y="80" width="64" height="40" as="geometry"/></mxCell><mxCell id="171" value="" style="shape=image;verticalLabelPosition=bottom;labelBackgroundColor=#ffffff;verticalAlign=top;aspect=fixed;imageAspect=0;image=data:image/png,iVBORw0KGgoAAAANSUhEUgAAAEAAAAAoCAYAAABOzvzpAAAAAXNSR0IArs4c6QAAAF1JREFUaEPt1QERADAMArHi33SFfOagHBm7+Fv8/hOABsQTQCBeAJ8gAgjEE0AgXgArgAAC8QQQiBfACiCAQDwBBOIFsAIIIBBPAIF4AawAAgjEE0AgXgArgECdwANfiQApEtGAKwAAAABJRU5ErkJggg==;" parent="1" vertex="1"><mxGeometry x="448" y="120" width="64" height="40" as="geometry"/></mxCell><mxCell id="172" value="" style="shape=image;verticalLabelPosition=bottom;labelBackgroundColor=#ffffff;verticalAlign=top;aspect=fixed;imageAspect=0;image=data:image/png,iVBORw0KGgoAAAANSUhEUgAAAEAAAAAoCAYAAABOzvzpAAAAAXNSR0IArs4c6QAAAF1JREFUaEPt1QERADAMArHi33SFfOagHBm7+Fv8/hOABsQTQCBeAJ8gAgjEE0AgXgArgAAC8QQQiBfACiCAQDwBBOIFsAIIIBBPAIF4AawAAgjEE0AgXgArgECdwANfiQApEtGAKwAAAABJRU5ErkJggg==;" parent="1" vertex="1"><mxGeometry x="448" y="160" width="64" height="40" as="geometry"/></mxCell><mxCell id="173" value="" style="shape=image;verticalLabelPosition=bottom;labelBackgroundColor=#ffffff;verticalAlign=top;aspect=fixed;imageAspect=0;image=data:image/png,iVBORw0KGgoAAAANSUhEUgAAAEAAAAAoCAYAAABOzvzpAAAAAXNSR0IArs4c6QAAAF1JREFUaEPt1QERADAMArHi33SFfOagHBm7+Fv8/hOABsQTQCBeAJ8gAgjEE0AgXgArgAAC8QQQiBfACiCAQDwBBOIFsAIIIBBPAIF4AawAAgjEE0AgXgArgECdwANfiQApEtGAKwAAAABJRU5ErkJggg==;" parent="1" vertex="1"><mxGeometry x="448" y="200" width="64" height="40" as="geometry"/></mxCell><mxCell id="174" value="" style="shape=image;verticalLabelPosition=bottom;labelBackgroundColor=#ffffff;verticalAlign=top;aspect=fixed;imageAspect=0;image=data:image/png,iVBORw0KGgoAAAANSUhEUgAAAEAAAAAoCAYAAABOzvzpAAAAAXNSR0IArs4c6QAAAF1JREFUaEPt1QERADAMArHi33SFfOagHBm7+Fv8/hOABsQTQCBeAJ8gAgjEE0AgXgArgAAC8QQQiBfACiCAQDwBBOIFsAIIIBBPAIF4AawAAgjEE0AgXgArgECdwANfiQApEtGAKwAAAABJRU5ErkJggg==;" parent="1" vertex="1"><mxGeometry x="448" y="240" width="64" height="40" as="geometry"/></mxCell><mxCell id="175" value="" style="shape=image;verticalLabelPosition=bottom;labelBackgroundColor=#ffffff;verticalAlign=top;aspect=fixed;imageAspect=0;image=data:image/png,iVBORw0KGgoAAAANSUhEUgAAAEAAAAAoCAYAAABOzvzpAAAAAXNSR0IArs4c6QAAAF1JREFUaEPt1QERADAMArHi33SFfOagHBm7+Fv8/hOABsQTQCBeAJ8gAgjEE0AgXgArgAAC8QQQiBfACiCAQDwBBOIFsAIIIBBPAIF4AawAAgjEE0AgXgArgECdwANfiQApEtGAKwAAAABJRU5ErkJggg==;" parent="1" vertex="1"><mxGeometry x="448" y="280" width="64" height="40" as="geometry"/></mxCell><mxCell id="176" value="" style="shape=image;verticalLabelPosition=bottom;labelBackgroundColor=#ffffff;verticalAlign=top;aspect=fixed;imageAspect=0;image=data:image/png,iVBORw0KGgoAAAANSUhEUgAAAEAAAAAoCAYAAABOzvzpAAAAAXNSR0IArs4c6QAAAF1JREFUaEPt1QERADAMArHi33SFfOagHBm7+Fv8/hOABsQTQCBeAJ8gAgjEE0AgXgArgAAC8QQQiBfACiCAQDwBBOIFsAIIIBBPAIF4AawAAgjEE0AgXgArgECdwANfiQApEtGAKwAAAABJRU5ErkJggg==;" parent="1" vertex="1"><mxGeometry x="448" y="320" width="64" height="40" as="geometry"/></mxCell></root></mxGraphModel></diagram></mxfile>